<svg height="141" viewBox="0 0 141 128" width="128" xmlns="http://www.w3.org/2000/svg"><g fill="none" fill-rule="evenodd"><path d="m107.520452 89.2622111-.237084.9409447c-2.424467-4.809588-6.629887-7.5105528-9.2265225-8.4316583-2.5909903-.9324422-4.0868779-1.0203015-4.0868779-1.0203015s1.419682 3.1714372 1.5241119 4.6367035c.0762056.9664523.1891028 1.8167035-.5814205 3.1374271-.637869 1.1138292-1.6257194 1.6778292-2.9212145 1.6778292-2.142224 0-3.5647284-.8672563-4.4199246-1.6721608 1.3152522-1.5106131 1.5523362-2.9532061 1.4789531-4.0018493-.1326542-1.9102311-1.3632335-3.3358191-2.4272894-4.2314171.8551961-2.29001 3.5675509-6.6376281 11.8767833-6.6376281 8.4757561 0 9.7260921 6.3655477 9.7260921 10.1576683 0 2.5479196-.688673 5.4189347-.705607 5.4444423zm-68.5822147-4.7330654c-.0705607 1.0486432.1749906 2.4940704 1.4789531 4.0018493-.8439065.7992362-2.2664109 1.6721608-4.4114573 1.6721608-1.30114 0-2.2861679-.564-2.9353267-1.6806633-.7959251-1.3915779-.7056074-2.6046031-.5898878-3.2111156.3556261-1.8592161 1.5608035-4.5601809 1.5608035-4.5601809s-1.4902427.1048643-4.0981676 1.0203015c-2.6192146.912603-6.8161672 3.6220703-9.2406342 8.4316583l-.2399065-.9409447c0-.0255076-.7056073-2.9135277-.7056073-5.4444423 0-3.7921206 1.2729157-10.1576683 9.7430266-10.1576683 8.2979427 0 11.007475 4.3306131 11.8711384 6.6461307-1.0725232.8870954-2.2946352 2.3126834-2.4329342 4.2229145zm64.5828317-41.9655678c-7.7899054 0-13.8496615 3.0467337-17.3325395 5.3735879-5.565831-32.8055276-20.0110251-45.99575876-20.6517166-46.56259294l-1.5354017-1.37457286-1.5495138 1.37457286c-.637869.56683418-15.0745959 13.75989954-20.6319596 46.56259294-3.482878-2.3268542-9.5454565-5.3735879-17.3466517-5.3735879-15.12257719 0-24.4732861 13.3971256-24.4732861 25.8079598 0 6.4845829 3.00870984 12.6375678 8.70719499 17.7900904 4.19130781 3.7892865 8.35156891 5.7136885 8.53784921 5.7930453l2.3341492 1.0656482c-.5023924 1.6466533-.7902803 3.4775276-.7902803 5.5011256 0 13.3206028 9.5256996 18.0508338 17.696633 18.0508338 3.7538312 0 6.8500364-1.023135 8.9075875-1.958412 5.8593636 17.560523 16.8132125 25.164603 17.2986703 25.50187l1.3096073.884261 1.3039624-.884261c.4826355-.337267 11.4364844-7.941347 17.3014928-25.50187 2.0575511.935277 5.1509339 1.958412 8.9132324 1.958412 8.1539988 0 17.6853432-4.730231 17.6853432-18.0508338 0-2.023598-.293533-3.8544723-.79028-5.5011256l2.334149-1.0656482c.166523-.0793568 4.338074-2.0037588 8.535027-5.7930453 5.706952-5.1525226 8.715662-11.3055075 8.715662-17.7900904 0-12.4108342-9.359176-25.8079598-24.478931-25.8079598z" fill="#fffffe"/><path d="m77.7592593 134.211152h-.9722223v-.655762h.9722223c.25 0 .4537037.147212.4537037.332342 0 .178439-.2037037.32342-.4537037.32342zm1.2407407-.32342c0-.495167-.558642-.887732-1.2407407-.887732h-1.7592593v3h.787037v-1.224535h.5524692l.7962963 1.224535h.8641975l-.8302469-1.273606c.478395-.124907.8302469-.455019.8302469-.838662z" fill="#fffffe"/><path d="m76.4970314 138.24661c-1.5229008 0-2.754877-1.236864-2.754877-2.749576 0-1.518644 1.2319762-2.74661 2.754877-2.74661 1.5199321 0 2.7519084 1.227966 2.7519084 2.74661 0 1.512712-1.2319763 2.749576-2.7519084 2.749576zm0-6.24661c-1.9385072 0-3.4970314 1.563136-3.4970314 3.497034 0 1.936864 1.5585242 3.502966 3.4970314 3.502966 1.9355386 0 3.5029686-1.566102 3.5029686-3.502966 0-1.933898-1.56743-3.497034-3.5029686-3.497034z" fill="#fffffe"/><path d="m103.742936 44.7546763c-11.601544 0-19.1385823 7.2984437-19.1385823 7.2984437-4.9878709-35.2282106-20.5916079-49.05312-20.5916079-49.05312s-15.6263962 13.8249094-20.600105 49.05312c0 0-7.5398708-7.2984437-19.1499121-7.2984437-14.73418762 0-22.2627287 13.2819798-22.2627287 23.4647368 0 14.1868624 15.9634528 21.4457175 15.9634528 21.4457175s-.7817447-3.1388115-.7817447-5.997675c0-3.6506357 1.3029078-12.5015186 12.1255397-12.5015186 13.224514 0 14.6293885 9.9735029 14.6293885 9.9735029s-5.9537221 3.0426677-.4843418 6.9280074c0 0-2.0393339 4.3038478-7.5908541 4.3038478-5.5458553 0-6.8544279-6.557571-5.3334247-8.5596238 0 0-9.6273556 3.3819987-9.6273556 14.5459877 0 11.161161 7.6644967 15.702541 15.4337925 15.702541 6.1859796 0 10.3411224-3.056807 10.3411224-3.056807 5.4268942 18.954463 17.3371708 26.996607 17.3371708 26.996607s11.8904498-8.042144 17.3258412-26.996607c0 0 4.1579753 3.056807 10.3326252 3.056807 7.7664634 0 15.4366248-4.54138 15.4366248-15.702541 0-11.163989-9.6301879-14.5459877-9.6301879-14.5459877 1.5238356 2.0020528.2237603 8.5596238-5.3249275 8.5596238-5.5543525 0-7.6021837-4.3038478-7.6021837-4.3038478 5.4778776-3.8853397-.478677-6.9280074-.478677-6.9280074s1.3992097-9.9735029 14.6208913-9.9735029c10.8396268 0 12.1255398 8.8508829 12.1255398 12.5015186 0 2.8588635-.770415 5.997675-.770415 5.997675s15.952123-7.2588551 15.952123-21.4457175c0-10.182757-7.522876-23.4647368-22.257064-23.4647368" fill="#0c0a09"/><path d="m112.934433 85.2598577c8.201911-10.065405 2.732089-27.168364-11.19366-27.168364-15.3990448 0-23.0646983 21.0729341-23.0646983 21.0729341s-.9793747-.2610706-2.3482414-.5675447c-.4741642-.0794563-.8495441-.1731011-1.3547547-.2752592-.8156752-.1617502-1.6906209-.3263382-2.5599218-.4370094 1.9643942-8.0194064 13.3104646-29.7819072 29.9485452-29.7819072 12.607686 0 19.638298 8.720324 19.638298 20.9963155 0 10.6102479-9.065567 16.1608349-9.065567 16.1608349zm-21.9131564 19.6625853c5.7492401 0 9.9574464-6.4529829 9.9574464-10.4967387 0-2.7979953-1.5777243-5.4796439-1.5777243-5.4796439.5644811 3.1243334-3.228832 7.0148522-6.7173252 7.0148522-3.0566652 0-4.6541468-2.0318099-4.6541468-2.0318099l.3443335-.3859304s1.5833695 1.4472389 3.9541902 1.4472389c5.2553191 0 7.2281806-5.6101791 6.7765957-7.0829576 1.6313509 1.3989976 4.8009119 4.0749708 4.8009119 11.2260338 0 5.5505866-3.9146765 12.5001716-12.7177595 12.5001716-15.5373426 0-19.8584455-19.770419-19.8584455-19.770419 2.7264438-.2582328 7.0193226-1.2713 7.0193226-1.2713s.2907078 14.330503 12.672601 14.330503zm-27.509987 27.077557s-8.9244464-5.181683-14.0979157-23.624047c0 0 5.7520625-7.134037 8.6930091-16.2743442h3.9259661l-8.7042987 18.7460012c3.2881024 11.802091 10.1832392 17.145525 10.1832392 17.145525v-35.8915262h1.6849761c.778984-.0056754 1.1430743-.0056754 1.9615719 0h1.747069c2.9353018 9.1403072 8.6760747 16.2743442 8.6760747 16.2743442-5.1565349 18.442364-14.0696917 23.624047-14.0696917 23.624047zm-27.6906209-20.366341c-8.8059053 0-12.714937-6.949585-12.714937-12.5001716 0-7.151063 3.1582718-9.8270362 4.7896222-11.2260338-.4459401 1.4727785 1.524099 7.0829576 6.7765957 7.0829576 2.3708207 0 3.9626574-1.4472389 3.9626574-1.4472389l.3471559.3859304s-1.6115936 2.0318099-4.6654364 2.0318099c-3.4941381 0-7.2733391-3.8905188-6.7201476-7.0148522 0 0-1.5720799 2.6816486-1.5720799 5.4796439 0 4.0437558 4.2166739 10.4967387 9.9687364 10.4967387 11.4420322 0 14.1374295-14.0098403 14.1374295-14.0098403s2.8111159.6924045 5.5516717.9506373c0 0-4.3182805 19.770419-19.8612679 19.770419zm-10.5614416-53.5421653c-13.9229266 0-19.39274859 17.102959-11.190838 27.168364 0 0-9.0683891-5.550587-9.0683891-16.1608349 0-12.2759915 7.0475467-20.9963155 19.6354755-20.9963155 16.6493704 0 27.9982631 21.7625008 29.9513677 29.7819072-3.0058619.4057945-6.2629179 1.2798133-6.2629179 1.2798133s-7.6684759-21.0729341-23.0646982-21.0729341zm28.5119409 31.2036067s-9.5058619-.8257776-9.5058619-4.5715725c0-2.8888024 7.3156752-5.3746481 19.2459835-5.3746481 6.0427703 0 15.4329136.5561938 15.4329136 4.216857 0 3.6549877-15.4329136 3.2548687-15.4329136 3.2548687-19.4040382 0-13.7705167-2.0374854-18.0013026-2.0374854 2.2720364 3.6606632 8.261181 4.5119803 8.261181 4.5119803zm9.7401216-81.2951004s13.6801998 15.9111152 16.8356492 48.3519692c0 0-8.1849761 10.8032131-9.7485888 21.268737 0 0-.987842-.0879694-2.2579245-.1759388 2.1337386-12.3157196 9.0034738-22.0349223 9.0034738-22.0349223-4.1122449-27.2421448-13.8326097-43.6441861-13.8326097-43.6441861v65.4237133c-.8241424 0-2.1139817.0652676-3.375597.1503993-.4120712.0141886-.9934868.0737808-1.4789405.1049958-1.2672601.0879694-2.2494573.1759388-2.2494573.1759388-1.5692575-10.4655239-9.7598784-21.268737-9.7598784-21.268737 3.1752063-32.440854 16.8638732-48.3519692 16.8638732-48.3519692z" fill="#ba2229"/><g fill="#fffffe"><path d="m49 55.1929142s6.9401222 9.6187082 9.095723 21.8070858c.4790224-.036509.9894094-.0758263 1.4940937-.1039101-1.5226069-13.6964788-7.3478615-21.624541-7.3478615-21.624541 1.4313646-19.7625837 10.7580448-43.2715489 10.7580448-43.2715489s-9.8399185 16.2324476-14 43.1929142"/><path d="m75 113.341896s-4.1424802-10.148594-7.7077836-21.341896h-2.2922164c1.012533 5.4371647 6.0323219 22.316371 6.0323219 22.316371-1.6985488 7.968461-5.9465699 13.683629-5.9465699 13.683629s5.6761214-3.590636 9.914248-14.658104"/><path d="m47 83.9625751s11.2437457-2.121 28-1.581c-12.2792445-2.949-25.4361713-.126-25.4361713-.126z"/><path d="m25.4186467 52.1517285c10.3512292 0 15.5813533 8.1955953 15.5813533 8.1955953s-5.1742169-10.3473238-17.3228644-10.3473238c-8.8836636 0-16.6771356 8.3746728-16.6771356 17.798628 0 9.415561 3.7262189 13.201372 3.7262189 13.201372s-2.38444467-3.9564943-2.38444467-10.9936817c0-7.0343894 5.52363727-17.8545898 17.07687247-17.8545898"/><path d="m103.15558 51c-15.4773167 0-24.6729749 19.4512403-27.15558 27.7272271.4675758.0871748.9212357.182786 1.335931.2727729 2.6384637-6.5296776 12.1848038-26.6530079 26.916226-26.6530079 7.172279 0 11.747843 4.5584011 11.747843 4.5584011s-4.575564-5.9053932-12.84442-5.9053932"/></g></g></svg>