<?xml version="1.0" encoding="UTF-8"?>
<svg width="19px" height="12px" viewBox="0 0 19 12" version="1.1" xmlns="http://www.w3.org/2000/svg" xmlns:xlink="http://www.w3.org/1999/xlink">
    <!-- Generator: Sketch 55.2 (78181) - https://sketchapp.com -->
    <title>Icon/UI-30/Angle down</title>
    <desc>Created with Sketch.</desc>
    <defs>
        <path d="M15.9409091,11.0009804 C15.9409091,11.1659779 15.8785854,11.311935 15.7539363,11.4388561 L7.04100281,20.3105996 C6.91635364,20.4375208 6.77300925,20.5009804 6.61096532,20.5009804 C6.4489214,20.5009804 6.30557701,20.4375208 6.18092784,20.3105996 L5.24606373,19.3586958 C5.12141456,19.2317747 5.05909091,19.0858176 5.05909091,18.9208201 C5.05909091,18.7558226 5.12141456,18.6098655 5.24606373,18.4829443 L12.5940956,11.0009804 L5.24606373,3.51901646 C5.12141456,3.39209532 5.05909091,3.2461382 5.05909091,3.08114071 C5.05909091,2.91614323 5.12141456,2.7701861 5.24606373,2.64326496 L6.18092784,1.69136115 C6.30557701,1.56444001 6.4489214,1.50098039 6.61096532,1.50098039 C6.77300925,1.50098039 6.91635364,1.56444001 7.04100281,1.69136115 L15.7539363,10.5631046 C15.8785854,10.6900258 15.9409091,10.8359829 15.9409091,11.0009804 Z" id="path-1"></path>
    </defs>
    <g id="Symbols" stroke="none" stroke-width="1" fill="none" fill-rule="evenodd">
        <g id="Form/natural/menu" transform="translate(-240.000000, -11.000000)">
            <g id="Icon/UI-30/Angle-down" transform="translate(249.500000, 16.500000) rotate(-360.000000) translate(-249.500000, -16.500000) translate(239.000000, 6.000000)">
                <mask id="mask-2" fill="white">
                    <use xlink:href="#path-1"></use>
                </mask>
                <use id="" fill="#367075" fill-rule="evenodd" transform="translate(10.500000, 11.000980) rotate(-270.000000) translate(-10.500000, -11.000980) " xlink:href="#path-1"></use>
            </g>
        </g>
    </g>
</svg>