<?xml version="1.0" encoding="UTF-8"?>
<svg width="80px" height="58px" viewBox="0 0 80 58" version="1.1" xmlns="http://www.w3.org/2000/svg" xmlns:xlink="http://www.w3.org/1999/xlink">
    <!-- Generator: Sketch 55.2 (78181) - https://sketchapp.com -->
    <title>speaker</title>
    <desc>Created with Sketch.</desc>
    <g id="Symbols" stroke="none" stroke-width="1" fill="none" fill-rule="evenodd">
        <g id="Icon/large/speaker" transform="translate(0.000000, -10.000000)" fill="#CE181E" fill-rule="nonzero">
            <g id="speaker" transform="translate(0.000000, 10.000000)">
                <path d="M54.6682261,0.420116959 C55.0824172,0.712358674 55.3291228,1.18768031 55.3291228,1.69450292 L55.3291228,46.5445614 C55.3291228,47.0512281 55.082729,47.5265497 54.668694,47.8187914 C54.4021832,48.0070175 54.0870175,48.1041715 53.7692008,48.1041715 C53.5932943,48.1041715 53.4166082,48.0745419 53.2466277,48.0140351 L28.5230409,39.2207407 L28.5230409,49.2622222 L31.9903314,55.2207407 C32.2710331,55.7032359 32.2725926,56.2989474 31.994386,56.782846 C31.7161793,57.2667446 31.2006238,57.5650682 30.6423392,57.5650682 L19.779961,57.5650682 C18.9186745,57.5650682 18.2201949,56.8667446 18.2201949,56.0053021 L18.2201949,36.0159064 L10.7617934,36.0159064 C4.82775828,36.0159064 -9.34363698e-13,31.1881481 -9.34363698e-13,25.2539571 L-9.34363698e-13,22.9852632 C-9.34363698e-13,17.0512281 4.82760234,12.2234698 10.7617934,12.2234698 L19.5109552,12.2234698 L53.2464717,0.22502924 C53.7236647,0.0550487329 54.2540351,0.127875244 54.6682261,0.420116959 Z M18.2203509,32.8965302 L18.2201949,32.8965302 L18.2201949,15.342846 L10.7617934,15.342846 C6.54768031,15.342846 3.11937622,18.7711501 3.11937622,22.9852632 L3.11937622,25.2539571 C3.11937622,29.4682261 6.54768031,32.8965302 10.7617934,32.8965302 L12.2690058,32.8965302 L12.2690058,25.314152 C12.2690058,24.4527096 12.9674854,23.754386 13.8287719,23.754386 C14.6900585,23.754386 15.388538,24.4527096 15.388538,25.314152 L15.388538,32.8965302 L18.2203509,32.8965302 Z M21.3397271,54.445848 L27.9299805,54.445848 L26.0662768,51.2430409 L23.897232,51.2430409 C23.0359454,51.2430409 22.3374659,50.5447173 22.3374659,49.6832749 C22.3374659,48.8218324 23.0359454,48.1235088 23.897232,48.1235088 L25.4035088,48.1235088 L25.4035088,38.1116569 L21.3397271,36.6663548 L21.3397271,54.445848 Z M44.6802339,29.6077973 C45.5413645,29.6077973 46.2398441,30.3061209 46.24,31.1672515 L46.24,42.211462 L52.2092788,44.3345029 L52.2092788,3.9045614 L46.2398441,6.02760234 L46.2398441,19.982846 C46.2398441,20.8442885 45.5413645,21.5426121 44.680078,21.5426121 C43.8187914,21.5426121 43.1203119,20.8442885 43.1203119,19.982846 L43.1203119,7.13730994 L21.3397271,14.8838986 L21.3397271,33.3556335 L43.1204678,41.1023782 L43.1204678,31.1675634 C43.1204678,30.3061209 43.8189474,29.6077973 44.6802339,29.6077973 Z M72.2156725,5.6731384 C82.3870565,15.8445224 82.3870565,32.3946979 72.2155166,42.5660819 C71.9109552,42.8706433 71.5117349,43.022846 71.1126706,43.022846 C70.7136062,43.022846 70.314386,42.8706433 70.0098246,42.5660819 C69.4007018,41.9569591 69.4007018,40.9693567 70.0098246,40.3602339 C74.3480702,36.0223002 76.7369981,30.2545029 76.7369981,24.1196101 C76.7369981,17.9847173 74.3479142,12.2169201 70.0098246,7.87898635 C69.4007018,7.26986355 69.4007018,6.28226121 70.0098246,5.6731384 C70.6191033,5.06401559 71.6063938,5.06401559 72.2156725,5.6731384 Z M67.2601949,10.628616 C74.6991033,18.0676803 74.6991033,30.1716959 67.260039,37.6107602 C66.9554776,37.9151657 66.5562573,38.0675244 66.157193,38.0675244 C65.7581287,38.0675244 65.3589084,37.9153216 65.054347,37.6107602 C64.4452242,37.0017934 64.4452242,36.014191 65.054347,35.4050682 C71.277037,29.1822222 71.277037,19.057154 65.054347,12.834308 C64.4452242,12.2253411 64.4452242,11.2377388 65.054347,10.628616 C65.6637817,10.0194932 66.6510721,10.0194932 67.2601949,10.628616 Z M62.3050292,15.5839376 C67.011462,20.2905263 67.011462,27.948694 62.3048733,32.6554386 C62.0003119,32.9598441 61.6010916,33.1122027 61.2020273,33.1122027 C60.802963,33.1122027 60.4037427,32.96 60.0991813,32.6554386 C59.4900585,32.0464717 59.4900585,31.0588694 60.0991813,30.4497466 C63.5895517,26.9593762 63.5895517,21.28 60.0991813,17.7896296 C59.4900585,17.1806628 59.4900585,16.1930604 60.0991813,15.5839376 C60.708616,14.9748148 61.6959064,14.9748148 62.3050292,15.5839376 Z M44.6803899,24.0910721 C45.5415205,24.0910721 46.24,24.7893957 46.2401559,25.6508382 L46.2401559,25.6737622 C46.2401559,26.5352047 45.5416764,27.2335283 44.6803899,27.2335283 C43.8191033,27.2335283 43.1206238,26.5352047 43.1206238,25.6737622 L43.1206238,25.6508382 C43.1206238,24.7893957 43.8191033,24.0910721 44.6803899,24.0910721 Z M13.8287719,18.0636257 C14.6899025,18.0636257 15.3883821,18.7617934 15.388538,19.6233918 L15.388538,19.6463158 C15.388538,20.5077583 14.6900585,21.2060819 13.8287719,21.2060819 C12.9674854,21.2060819 12.2690058,20.5077583 12.2690058,19.6463158 L12.2690058,19.6233918 C12.2690058,18.7619493 12.9674854,18.0636257 13.8287719,18.0636257 Z" id="Combined-Shape"></path>
            </g>
        </g>
    </g>
</svg>