<svg id="Layer_1" data-name="Layer 1" xmlns="http://www.w3.org/2000/svg" viewBox="0 0 79 21"><title>one-of-three</title><circle cx="10.5" cy="10.5" r="10" style="fill:#0097a7"/><path d="M10.5,1A9.5,9.5,0,1,1,1,10.5,9.51,9.51,0,0,1,10.5,1m0-1A10.5,10.5,0,1,0,21,10.5,10.5,10.5,0,0,0,10.5,0Z" style="fill:#0097a7"/><circle cx="68.5" cy="10.5" r="10" style="fill:#fff"/><path d="M68.5,1A9.5,9.5,0,1,1,59,10.5,9.51,9.51,0,0,1,68.5,1m0-1A10.5,10.5,0,1,0,79,10.5,10.5,10.5,0,0,0,68.5,0Z" style="fill:#4d4d4d"/><circle cx="39.5" cy="10.5" r="10" style="fill:#fff"/><path d="M39.5,1A9.5,9.5,0,1,1,30,10.5,9.51,9.51,0,0,1,39.5,1m0-1A10.5,10.5,0,1,0,50,10.5,10.5,10.5,0,0,0,39.5,0Z" style="fill:#4d4d4d"/></svg>