<?xml version="1.0" encoding="UTF-8"?>
<svg width="165px" height="41px" viewBox="0 0 165 41" version="1.1" xmlns="http://www.w3.org/2000/svg" xmlns:xlink="http://www.w3.org/1999/xlink">
    <!-- Generator: Sketch 56.2 (81672) - https://sketch.com -->
    <title>Logo/normal-web</title>
    <desc>Created with Sketch.</desc>
    <defs>
        <polygon id="path-1" points="0.0184701493 0.037964454 36.6644776 0.037964454 36.6644776 40.1250327 0.0184701493 40.1250327"></polygon>
    </defs>
    <g id="Symbols" stroke="none" stroke-width="1" fill="none" fill-rule="evenodd">
        <g id="Wrapper/Header/subsite" transform="translate(-140.000000, -93.000000)">
            <g id="Logo" transform="translate(140.000000, 90.000000)">
                <g id="Logo/normal" transform="translate(0.000000, 3.000000)">
                    <g id="AcademicHorizontal_Web_Only" transform="translate(0.000000, 0.719298)">
                        <g id="Group-3">
                            <mask id="mask-2" fill="white">
                                <use xlink:href="#path-1"></use>
                            </mask>
                            <g id="Clip-2"></g>
                            <path d="M30.0841791,12.4347476 C26.6539646,12.4347476 24.4252332,14.6039686 24.4252332,14.6039686 C22.950084,4.14121203 18.3350093,0.037964454 18.3350093,0.037964454 C18.3350093,0.037964454 13.7159328,4.14121203 12.2438619,14.6039686 C12.2438619,14.6039686 10.0160541,12.4347476 6.58306903,12.4347476 C2.22719216,12.4347476 0,16.3808903 0,19.4060091 C0,23.6163596 4.72004664,25.7707653 4.72004664,25.7707653 C4.72004664,25.7707653 4.48916978,24.8401731 4.48916978,23.9904484 C4.48916978,22.9079985 4.87427239,20.2791915 8.07484142,20.2791915 C11.9852799,20.2791915 12.4005504,23.2413449 12.4005504,23.2413449 C12.4005504,23.2413449 10.6403451,24.1435408 12.2564832,25.2975985 C12.2564832,25.2975985 11.6528172,26.5769698 10.0126679,26.5769698 C8.37190299,26.5769698 7.98587687,24.6293624 8.43654851,24.0333513 C8.43654851,24.0333513 5.58845149,25.0386377 5.58845149,28.3535827 C5.58845149,31.6676018 7.85504664,33.0179635 10.1527332,33.0179635 C11.9806623,33.0179635 13.2113899,32.1092858 13.2113899,32.1092858 C14.8149067,37.7382106 18.3350093,40.1250327 18.3350093,40.1250327 C18.3350093,40.1250327 21.8517257,37.7382106 23.4586287,32.1092858 C23.4586287,32.1092858 24.688125,33.0179635 26.5145149,33.0179635 C28.8097388,33.0179635 31.080028,31.6676018 31.080028,28.3535827 C31.080028,25.0386377 28.2303918,24.0333513 28.2303918,24.0333513 C28.6819869,24.6293624 28.2971922,26.5769698 26.6564272,26.5769698 C25.0138153,26.5769698 24.4089179,25.2975985 24.4089179,25.2975985 C26.0275187,24.1435408 24.2676213,23.2413449 24.2676213,23.2413449 C24.2676213,23.2413449 24.6801213,20.2791915 28.5902519,20.2791915 C31.7938993,20.2791915 32.1756157,22.9079985 32.1756157,23.9904484 C32.1756157,24.8401731 31.9472015,25.7707653 31.9472015,25.7707653 C31.9472015,25.7707653 36.6644776,23.6163596 36.6644776,19.4060091 C36.6644776,16.3808903 34.4397481,12.4347476 30.0841791,12.4347476" id="Fill-1" fill="#0C0A09" mask="url(#mask-2)"></path>
                        </g>
                        <path d="M22.6709176,39.0203597 L22.3451773,39.0203597 L22.3451773,38.7731278 L22.6709176,38.7731278 C22.7552001,38.7731278 22.8220186,38.8308461 22.8220186,38.8999846 C22.8220186,38.9654193 22.7552001,39.0203597 22.6709176,39.0203597 Z M23.0832183,38.8999846 C23.0832183,38.7132489 22.8990877,38.564169 22.6709176,38.564169 L22.0832183,38.564169 L22.0832183,39.6922997 L22.3451773,39.6922997 L22.3451773,39.2345657 L22.5315858,39.2345657 L22.7962023,39.6922997 L23.0832183,39.6922997 L22.8083512,39.2151205 C22.9674248,39.169131 23.0832183,39.0425828 23.0832183,38.8999846 L23.0832183,38.8999846 Z" id="Fill-4" fill="#AEADA9"></path>
                        <path d="M22.4880224,39.9077402 C22.0595149,39.9077402 21.7128918,39.5561832 21.7128918,39.1299319 C21.7128918,38.6975075 22.0595149,38.3511976 22.4880224,38.3511976 C22.9174534,38.3511976 23.2643843,38.6975075 23.2643843,39.1299319 C23.2643843,39.5561832 22.9174534,39.9077402 22.4880224,39.9077402 Z M22.4880224,38.136683 C21.945,38.136683 21.5023321,38.5823795 21.5023321,39.1299319 C21.5023321,39.6765583 21.945,40.1207116 22.4880224,40.1207116 C23.0341231,40.1207116 23.4774067,39.6765583 23.4774067,39.1299319 C23.4774067,38.5823795 23.0341231,38.136683 22.4880224,38.136683 L22.4880224,38.136683 Z" id="Fill-5" fill="#AEADA9"></path>
                        <path d="M33.0012313,24.4450959 C35.4346735,21.4662752 33.8105317,16.405274 29.6806063,16.405274 C25.1117071,16.405274 22.8352612,22.6410127 22.8352612,22.6410127 C22.8352612,22.6410127 22.5458955,22.5613799 22.1380131,22.4727962 C21.9970243,22.4502645 21.8862034,22.4227943 21.7375187,22.3903856 C21.4943284,22.3434701 21.2354384,22.2959374 20.977472,22.2607509 C21.5611287,19.8902874 24.9266978,13.449911 29.8637687,13.449911 C33.6061287,13.449911 35.6914086,16.0302592 35.6914086,19.662192 C35.6914086,22.8018215 33.0012313,24.4450959 33.0012313,24.4450959 Z M26.4981996,30.2635343 C28.2042257,30.2635343 29.454347,28.3535827 29.454347,27.1575481 C29.454347,26.3288119 28.9842817,25.5364968 28.9842817,25.5364968 C29.1538993,26.4596812 28.027528,27.6097264 26.9922761,27.6097264 C26.0863153,27.6097264 25.6104011,27.0084682 25.6104011,27.0084682 L25.7126026,26.8961181 C25.7126026,26.8961181 26.1832836,27.3248386 26.8866884,27.3248386 C28.4458769,27.3248386 29.0292257,25.6645882 28.8983955,25.2278427 C29.3820056,25.6411305 30.3212127,26.4349889 30.3212127,28.5498868 C30.3212127,30.1928525 29.1609795,32.2491061 26.5483769,32.2491061 C21.9369963,32.2491061 20.6560914,26.3979504 20.6560914,26.3979504 C21.4644683,26.3223301 22.7389086,26.0229357 22.7389086,26.0229357 C22.7389086,26.0229357 22.826334,30.2635343 26.4981996,30.2635343 Z M18.3350093,38.2752687 C18.3350093,38.2752687 15.6882369,36.7431098 14.1545989,31.2842534 C14.1545989,31.2842534 15.8593937,29.173368 16.732416,26.4701754 L17.8975746,26.4701754 L15.3151399,32.0176155 C16.290056,35.5094194 18.3350093,37.0909629 18.3350093,37.0909629 L18.3350093,26.4701754 L18.8355504,26.4701754 C19.0664272,26.4673976 19.1732463,26.4673976 19.4182836,26.4701754 L19.9351399,26.4701754 C20.806931,29.173368 22.5114179,31.2842534 22.5114179,31.2842534 C20.9802425,36.7431098 18.3350093,38.2752687 18.3350093,38.2752687 Z M10.1194869,32.2491061 C7.50626866,32.2491061 6.34665112,30.1928525 6.34665112,28.5498868 C6.34665112,26.4349889 7.28462687,25.6411305 7.7670056,25.2278427 C7.63525187,25.6645882 8.22198694,27.3248386 9.77871269,27.3248386 C10.481194,27.3248386 10.9543377,26.8961181 10.9543377,26.8961181 L11.0596175,27.0084682 C11.0596175,27.0084682 10.5797015,27.6097264 9.673125,27.6097264 C8.63571828,27.6097264 7.51458022,26.4596812 7.67958022,25.5364968 C7.67958022,25.5364968 7.21290112,26.3288119 7.21290112,27.1575481 C7.21290112,28.3535827 8.46333022,30.2635343 10.1702799,30.2635343 C13.5666325,30.2635343 14.3645429,26.1170752 14.3645429,26.1170752 C14.3645429,26.1170752 15.200625,26.3223301 16.0130037,26.3979504 C16.0130037,26.3979504 14.7320989,32.2491061 10.1194869,32.2491061 Z M6.9841791,16.405274 C2.85456157,16.405274 1.23011194,21.4662752 3.6669403,24.4450959 C3.6669403,24.4450959 0.973992537,22.8018215 0.973992537,19.662192 C0.973992537,16.0302592 3.06388993,13.449911 6.80224813,13.449911 C11.7427052,13.449911 15.1088899,19.8902874 15.6882369,22.2607509 C14.7961287,22.3839038 13.8298321,22.6410127 13.8298321,22.6410127 C13.8298321,22.6410127 11.5549254,16.405274 6.9841791,16.405274 Z M15.4472015,25.6383526 C15.4472015,25.6383526 12.6258862,25.3954419 12.6258862,24.2842871 C12.6258862,23.4320932 14.7961287,22.6947185 18.3350093,22.6947185 C20.1287687,22.6947185 22.9149907,22.8607744 22.9149907,23.944459 C22.9149907,25.0253656 18.3350093,24.9049905 18.3350093,24.9049905 C12.577556,24.9049905 14.2491045,24.3024977 12.9940578,24.3024977 C13.6694496,25.3849476 15.4472015,25.6383526 15.4472015,25.6383526 Z M18.3350093,1.58308687 C18.3350093,1.58308687 22.3953638,6.29098782 23.3327239,15.8907476 C23.3327239,15.8907476 20.9020522,19.0871694 20.4378358,22.1851306 C20.4378358,22.1851306 20.1456996,22.158895 19.7689086,22.1335854 C20.4024347,18.4880718 22.4409235,15.6117243 22.4409235,15.6117243 C21.2200466,7.55245712 18.3350093,2.69671085 18.3350093,2.69671085 L18.3350093,22.0570391 C18.0912034,22.0570391 17.7085634,22.0764844 17.3342351,22.0993248 C17.2123321,22.1045719 17.0396362,22.1230911 16.8961847,22.1335854 C16.5175466,22.158895 16.228181,22.1851306 16.228181,22.1851306 C15.7633489,19.0871694 13.3336007,15.8907476 13.3336007,15.8907476 C14.2746549,6.29098782 18.3350093,1.58308687 18.3350093,1.58308687 L18.3350093,1.58308687 Z" id="Fill-6" fill="#BA2229"></path>
                        <path d="M14.2250933,15.6117243 C14.2250933,15.6117243 16.2626586,18.4880718 16.8961847,22.1335854 C17.03625,22.1203132 17.1864739,22.109819 17.3342351,22.0993248 C16.8875653,18.0065714 15.1772295,15.635182 15.1772295,15.635182 C15.5958862,9.72692524 18.3350093,2.69671085 18.3350093,2.69671085 C18.3350093,2.69671085 15.4472015,7.55245712 14.2250933,15.6117243" id="Fill-7" fill="#FFFFFE"></path>
                        <path d="M21.3764272,32.5941814 C21.3764272,32.5941814 20.3217817,29.6817213 19.4182836,26.4701754 L18.8355504,26.4701754 C19.0925933,28.0298046 20.3679571,32.8725874 20.3679571,32.8725874 C19.9351399,35.1600229 18.8555597,36.7995935 18.8555597,36.7995935 C18.8555597,36.7995935 20.2996175,35.7696148 21.3764272,32.5941814" id="Fill-8" fill="#FFFFFE"></path>
                        <path d="M13.7042351,24.0021773 C13.7042351,24.0021773 17.1061287,23.4098701 22.1752612,23.55895 C18.4587593,22.7339176 14.480597,23.5234548 14.480597,23.5234548 L13.7042351,24.0021773" id="Fill-9" fill="#FFFFFE"></path>
                        <path d="M7.00234142,14.4792724 C10.1013246,14.4792724 11.6685168,16.9358504 11.6685168,16.9358504 C11.6685168,16.9358504 10.1194869,13.8332594 6.48025187,13.8332594 C3.81808769,13.8332594 1.48376866,16.3457037 1.48376866,19.1745185 C1.48376866,22.0005554 2.60090485,23.1367112 2.60090485,23.1367112 C2.60090485,23.1367112 1.88518657,21.9483929 1.88518657,19.8356556 C1.88518657,17.7250789 3.54011194,14.4792724 7.00234142,14.4792724" id="Fill-10" fill="#FFFFFE"></path>
                        <path d="M29.9093284,14.1125913 C25.2511567,14.1125913 22.4834049,19.9202268 21.7375187,22.3903856 C21.8785075,22.4178558 22.0145709,22.445326 22.1380131,22.4727962 C22.9325373,20.5233369 25.8040299,14.514459 30.2377892,14.514459 C32.3951026,14.514459 33.7726679,15.8753149 33.7726679,15.8753149 C33.7726679,15.8753149 32.3951026,14.1125913 29.9093284,14.1125913" id="Fill-11" fill="#FFFFFE"></path>
                        <path d="M155.420775,33.4096455 L155.094378,33.4096455 L155.094378,33.1377213 L155.420775,33.1377213 C155.5017,33.1377213 155.572605,33.2006867 155.572605,33.276307 C155.572605,33.3510012 155.5017,33.4096455 155.420775,33.4096455 Z M155.833106,33.276307 C155.833106,33.071052 155.648135,32.906848 155.420775,32.906848 L154.833106,32.906848 L154.833106,34.15165 L155.094378,34.15165 L155.094378,33.6448399 L155.278578,33.6448399 L155.544474,34.15165 L155.833106,34.15165 L155.557191,33.6244688 C155.719041,33.5735408 155.833106,33.4355725 155.833106,33.276307 L155.833106,33.276307 Z" id="Fill-12" fill="#AEADA9"></path>
                        <path d="M155.231446,34.3843752 C154.809403,34.3843752 154.469552,34.0016441 154.469552,33.5272427 C154.469552,33.0528414 154.809403,32.6719622 155.231446,32.6719622 C155.654412,32.6719622 155.995802,33.0528414 155.995802,33.5272427 C155.995802,34.0016441 155.654412,34.3843752 155.231446,34.3843752 Z M155.231446,32.4389284 C154.696119,32.4389284 154.261455,32.9272192 154.261455,33.5272427 C154.261455,34.1312788 154.696119,34.6195696 155.231446,34.6195696 C155.76708,34.6195696 156.203591,34.1312788 156.203591,33.5272427 C156.203591,32.9272192 155.76708,32.4389284 155.231446,32.4389284 L155.231446,32.4389284 Z" id="Fill-13" fill="#AEADA9"></path>
                        <path d="M41.1995149,28.5128483 L41.1995149,27.9517151 C41.6403358,27.7424476 41.9235448,27.5763917 42.0448321,27.4544734 C42.1153265,27.3899647 42.1648881,27.306628 42.193209,27.2056982 C42.256931,27.0044557 42.3003358,26.5711053 42.3215765,25.9102769 C42.3579011,24.9213492 42.3760634,24.3336718 42.3760634,24.1466274 L42.3760634,18.3297323 C42.3760634,17.3506815 42.3649813,16.3920018 42.3425093,15.4555453 C42.3215765,14.7697159 42.2689366,14.3650704 42.1870522,14.2382135 C42.1042444,14.1129 41.9706437,14.0184518 41.788097,13.9579556 C41.6040112,13.8959161 41.0843843,13.8582603 40.2282929,13.8440623 L40.2282929,13.1520598 C41.9829571,13.2014444 43.0696175,13.2270627 43.4870429,13.2270627 C43.9478731,13.2270627 44.9800466,13.2014444 46.5829478,13.1520598 L46.5829478,13.8440623 C45.7277799,13.8582603 45.208153,13.8959161 45.024375,13.9579556 C44.8415205,14.0184518 44.713153,14.1036404 44.6423507,14.2122866 C44.5564646,14.3548848 44.5007463,14.7058245 44.4795056,15.2595499 C44.4705784,15.4040001 44.452416,16.4274971 44.4250187,18.3297323 L44.4250187,25.5942151 C44.4250187,26.3522696 44.4441045,26.9683432 44.4795056,27.4424358 C45.3001959,27.4933638 46.1128825,27.519908 46.9178731,27.519908 C48.9471269,27.519908 50.3674813,27.3899647 51.1807836,27.1303866 C51.2740578,26.9112421 51.3568657,26.6643189 51.4285914,26.3828263 L51.8601772,24.5889287 L52.5817444,24.5889287 C52.4253638,25.6633536 52.2705224,26.9235883 52.1190672,28.3727193 C51.8238526,28.4316722 51.5911287,28.4680934 51.4175093,28.4804396 C51.043181,28.5026627 50.4684515,28.5128483 49.6920896,28.5128483 L43.3038806,28.4400059 C42.6137127,28.4400059 41.9121549,28.4643896 41.1995149,28.5128483" id="Fill-14" fill="#0C0A09"></path>
                        <path d="M56.1012313,20.0319596 C56.1012313,20.7174804 56.1689552,21.4144213 56.3053265,22.1200046 C56.4420056,22.8255879 56.615625,23.4376489 56.8240299,23.9487801 C57.168806,24.8154808 57.6194776,25.5411266 58.1772761,26.1291127 C58.7350746,26.7170987 59.356903,27.1482885 60.0443004,27.4263858 C60.7304664,27.7044832 61.4917444,27.8439948 62.3253638,27.8439948 C63.4849813,27.8439948 64.4916045,27.5603417 65.3476959,26.9945788 C66.2037873,26.4291244 66.8413153,25.6303276 67.2630504,24.6052874 C67.6832463,23.5753087 67.893806,22.3916202 67.893806,21.0495922 C67.893806,19.9023249 67.7423507,18.8467279 67.4409795,17.8797146 C67.2541231,17.2880247 67.0053918,16.7525098 66.6969403,16.272244 C66.3869496,15.7932129 66.0178545,15.3749866 65.5902705,15.0175651 C65.1626866,14.6610697 64.6070429,14.3601319 63.922416,14.1147519 C63.2402519,13.8699892 62.5023694,13.7468362 61.7109235,13.7468362 C60.5676213,13.7468362 59.5640765,14.0033278 58.7009049,14.5150763 C57.8377332,15.0271334 57.1888153,15.7679032 56.7532276,16.7383117 C56.3185634,17.7081029 56.1012313,18.8062942 56.1012313,20.0319596 Z M53.8561847,20.9304517 C53.8561847,19.7890488 54.0270336,18.7374643 54.3687313,17.771377 C54.7104291,16.8052897 55.2765392,15.9361197 56.0679851,15.1638672 C56.859431,14.3922319 57.7549254,13.8098016 58.7556996,13.4165763 C59.7552425,13.023351 60.8985448,12.8273557 62.1859142,12.8273557 C63.3723134,12.8273557 64.4522015,12.9940289 65.4237313,13.3292272 C66.393722,13.6644256 67.1904011,14.1098134 67.8128451,14.6610697 C68.435597,15.2120172 68.9256716,15.8160533 69.2855317,16.4728692 C69.5582743,16.9633206 69.7768377,17.541121 69.9396828,18.20411 C70.1000653,18.868951 70.181334,19.5785467 70.181334,20.3362926 C70.181334,22.7644743 69.3677239,24.7873933 67.738041,26.4047408 C66.108666,28.0202363 64.0532463,28.8270581 61.5717817,28.8270581 C60.4414086,28.8270581 59.3883022,28.642483 58.41,28.2754933 C57.4313899,27.9088122 56.6033116,27.3612598 55.9285354,26.6359227 C55.2512966,25.9124375 54.7378265,25.0327733 54.3847388,23.9966215 C54.0322668,22.9629389 53.8561847,21.9416025 53.8561847,20.9304517 L53.8561847,20.9304517 Z" id="Fill-15" fill="#0C0A09"></path>
                        <path d="M70.580597,13.8440623 L70.580597,13.1520598 C71.7537593,13.2014444 72.8434981,13.2270627 73.8501213,13.2270627 C74.8699813,13.2270627 75.8846082,13.2014444 76.8940019,13.1520598 L76.8940019,13.8440623 C76.0505317,13.8582603 75.5333675,13.8959161 75.3471269,13.9579556 C75.161194,14.0184518 75.035597,14.1036404 74.9709515,14.2122866 C74.8782929,14.3548848 74.8216511,14.7058245 74.8016418,15.2595499 C74.7911754,15.4040001 74.7730131,16.4274971 74.745,18.3297323 L74.745,22.3308153 C74.745,23.8790243 74.8459701,24.900978 75.0439086,25.3954419 C75.2415392,25.8877452 75.5555317,26.2973291 75.9858862,26.6192554 C76.3177332,26.8671046 76.764403,27.0615567 77.3243563,27.2112539 C77.8864646,27.357556 78.5126026,27.4328676 79.2024627,27.4328676 C80.0089925,27.4328676 80.724403,27.3331723 81.3508489,27.1347077 C81.9739086,26.9359345 82.4445896,26.6967275 82.7576586,26.4090619 C83.0691884,26.1251002 83.3040672,25.8068778 83.4570616,25.4543948 C83.6128265,25.0991339 83.7245709,24.6173249 83.7932183,24.0012513 C83.8618657,23.3848691 83.8938806,22.6039742 83.8938806,21.66011 L83.8938806,18.3297323 C83.8938806,17.3506815 83.8778731,16.3920018 83.8412407,15.4555453 C83.8273881,14.7697159 83.77875,14.3650704 83.69625,14.2382135 C83.6149813,14.1129 83.4813806,14.0184518 83.2942164,13.9579556 C83.1073601,13.8959161 82.5923507,13.8582603 81.7473414,13.8440623 L81.7473414,13.1520598 C82.9322015,13.2014444 83.7990672,13.2270627 84.3430131,13.2270627 C84.8401679,13.2270627 85.7331996,13.2014444 87.0236474,13.1520598 L87.0236474,13.8440623 C86.1740205,13.8582603 85.6565485,13.8959161 85.4733862,13.9579556 C85.2908396,14.0184518 85.1640112,14.1036404 85.0929011,14.2122866 C85.0060914,14.3561194 84.9537593,14.7058245 84.9309795,15.2595499 C84.9251306,15.404926 84.9091231,16.4274971 84.8884981,18.3297323 L84.8884981,21.9520968 C84.8884981,23.7333396 84.763209,24.975981 84.5166325,25.6837248 C84.268209,26.3886908 83.8132276,27.0134067 83.1504571,27.5516994 C82.6548414,27.9575795 82.0157743,28.2693202 81.2357183,28.4924771 C80.4578172,28.7153253 79.590028,28.8270581 78.6418937,28.8270581 C77.5346082,28.8270581 76.5741604,28.6952628 75.7596269,28.4335242 C74.9469403,28.1720941 74.3294216,27.8239323 73.9046082,27.3936685 C73.4801026,26.9683432 73.1882743,26.5306716 73.0303545,26.0803453 C72.8284142,25.490816 72.7283675,24.499419 72.7283675,23.109241 L72.7283675,18.3297323 C72.7283675,17.3506815 72.7169776,16.3920018 72.6957369,15.4555453 C72.6744963,14.7697159 72.6221642,14.3650704 72.5393563,14.2382135 C72.4565485,14.1129 72.3241791,14.0184518 72.1400933,13.9579556 C71.956931,13.8959161 71.4376119,13.8582603 70.580597,13.8440623" id="Fill-16" fill="#0C0A09"></path>
                        <path d="M94.2968843,27.8217717 L94.2968843,28.5128483 C92.7687873,28.4643896 91.7615485,28.4400059 91.2810168,28.4400059 L87.9533116,28.5128483 L87.9533116,27.8217717 C88.7983209,27.8075736 89.311791,27.7689919 89.4977239,27.708187 C89.6836567,27.6473822 89.8129478,27.5621936 89.8859049,27.4544734 C89.9708675,27.3106405 90.0253545,26.9603181 90.0475187,26.4047408 C90.0555224,26.2547349 90.0739925,25.2309292 90.0998507,23.3357931 L90.0998507,18.3297323 C90.0998507,17.3506815 90.0903078,16.3920018 90.067528,15.4555453 C90.0475187,14.7697159 89.9951866,14.3650704 89.9120709,14.2382135 C89.8292631,14.1129 89.6956623,14.0184518 89.5140392,13.9579556 C89.3277985,13.8959161 88.8084795,13.8582603 87.9533116,13.8440623 L87.9533116,13.1520598 C89.3237966,13.2014444 90.3830597,13.2270627 91.1314086,13.2270627 C91.8505131,13.2270627 92.9057743,13.2014444 94.2968843,13.1520598 L94.2968843,13.8440623 C93.4457183,13.8582603 92.9300933,13.8959161 92.7484701,13.9579556 C92.5643843,14.0184518 92.4369403,14.1036404 92.3658302,14.2122866 C92.2793284,14.3548848 92.2266884,14.7058245 92.2045243,15.2595499 C92.1946735,15.404926 92.1783582,16.4274971 92.1500373,18.3297323 L92.1500373,23.3357931 C92.1500373,24.3151525 92.1620429,25.269511 92.1823601,26.2004118 C92.2045243,26.8834633 92.2553172,27.29243 92.339972,27.4223733 C92.4209328,27.5516994 92.5545336,27.6473822 92.7383116,27.708187 C92.9220896,27.7689919 93.4417164,27.8075736 94.2968843,27.8217717" id="Fill-17" fill="#0C0A09"></path>
                        <path d="M95.5904104,27.9813459 C95.7076959,27.2887261 95.7766511,26.169855 95.7966604,24.6191768 L96.5203825,24.6191768 C96.5570149,25.67107 96.6155037,26.2954772 96.6983116,26.4862255 C96.7814272,26.6763564 96.9815205,26.880994 97.2973601,27.0979779 C97.616278,27.3128011 98.0407836,27.5057099 98.5742631,27.6757783 C99.1083582,27.8439948 99.6215205,27.9310353 100.118675,27.9310353 C100.846707,27.9310353 101.515942,27.7628188 102.128228,27.4263858 C102.740205,27.0902615 103.187491,26.6476515 103.466082,26.104729 C103.749599,25.5574853 103.888741,24.9738204 103.888741,24.3515737 C103.888741,23.8756291 103.817938,23.4657364 103.678797,23.1191179 C103.539039,22.7724993 103.324785,22.4928587 103.037575,22.282048 C102.750672,22.0669161 102.394813,21.9175275 101.970616,21.8317217 C101.703414,21.7919053 101.172397,21.716285 100.373256,21.6128859 C99.5747295,21.5079435 98.8959515,21.3940501 98.3338433,21.2727491 C97.5839552,21.0415672 97.0338526,20.7739641 96.6823041,20.4637667 C96.3304478,20.1541866 96.0435448,19.7464546 95.8249813,19.2418051 C95.6048787,18.7390076 95.49375,18.1945418 95.49375,17.6121115 C95.49375,16.7620781 95.7160075,15.9611207 96.1565205,15.2080047 C96.6013433,14.4551974 97.2564179,13.8712238 98.1214366,13.4529975 C98.9907649,13.0366231 99.9290485,12.8273557 100.943675,12.8273557 C101.553806,12.8273557 102.221502,12.9088403 102.944916,13.0708837 C103.66833,13.2341618 104.343722,13.4693562 104.968629,13.7810968 C104.867043,14.2354357 104.796549,14.6589091 104.751912,15.0512084 C104.709739,15.4444338 104.677416,16.0231602 104.655252,16.7870791 L103.93153,16.7870791 C103.911213,15.675307 103.87889,15.070345 103.834254,14.9694151 C103.656632,14.7095283 103.409748,14.4746426 103.100373,14.2669184 C102.358797,13.8471488 101.582127,13.6388073 100.777752,13.6388073 C99.7326493,13.6388073 98.8981063,13.956721 98.2753545,14.5928571 C97.6522948,15.2296105 97.3410728,16.0543342 97.3410728,17.0679543 C97.3410728,17.6809413 97.4506623,18.1553427 97.6747668,18.4899237 C97.8970243,18.826048 98.2975187,19.0939598 98.8731716,19.2967455 C99.269972,19.431936 99.9164272,19.5618794 100.814076,19.6834891 C101.715728,19.8054075 102.524104,19.9350422 103.244132,20.0689981 C103.919524,20.2714752 104.418834,20.512534 104.741754,20.7906314 C105.067444,21.0681114 105.332183,21.4326319 105.540588,21.8826496 C105.748685,22.3348278 105.85181,22.8617004 105.85181,23.469749 C105.85181,24.9046819 105.259534,26.1575088 104.072826,27.2257607 C102.886119,28.2940125 101.351866,28.8270581 99.4657556,28.8270581 C98.0407836,28.8270581 96.7509515,28.5452569 95.5904104,27.9813459" id="Fill-18" fill="#0C0A09"></path>
                        <path d="M113.34361,27.8217717 L113.34361,28.5128483 C111.811203,28.4643896 110.806735,28.4400059 110.32528,28.4400059 L106.99819,28.5128483 L106.99819,27.8217717 C107.841045,27.8075736 108.35667,27.7689919 108.54445,27.708187 C108.73069,27.6473822 108.858134,27.5621936 108.928629,27.4544734 C109.013591,27.3106405 109.070233,26.9603181 109.090243,26.4047408 C109.098554,26.2547349 109.118563,25.2309292 109.145037,23.3357931 L109.145037,18.3297323 C109.145037,17.3506815 109.134571,16.3920018 109.112407,15.4555453 C109.090243,14.7697159 109.03791,14.3650704 108.95695,14.2382135 C108.874142,14.1129 108.738694,14.0184518 108.556763,13.9579556 C108.37514,13.8959161 107.85305,13.8582603 106.99819,13.8440623 L106.99819,13.1520598 C108.370522,13.2014444 109.430093,13.2270627 110.174132,13.2270627 C110.893545,13.2270627 111.948806,13.2014444 113.34361,13.1520598 L113.34361,13.8440623 C112.490289,13.8582603 111.972817,13.8959161 111.790886,13.9579556 C111.609263,14.0184518 111.479664,14.1036404 111.411017,14.2122866 C111.324207,14.3548848 111.269412,14.7058245 111.249403,15.2595499 C111.239552,15.404926 111.221082,16.4274971 111.194608,18.3297323 L111.194608,23.3357931 C111.194608,24.3151525 111.205075,25.269511 111.226931,26.2004118 C111.249403,26.8834633 111.301735,27.29243 111.383004,27.4223733 C111.465504,27.5516994 111.599104,27.6473822 111.782882,27.708187 C111.964813,27.7689919 112.486287,27.8075736 113.34361,27.8217717" id="Fill-19" fill="#0C0A09"></path>
                        <path d="M119.32917,22.4440914 L124.769244,22.4440914 L122.082453,15.9342678 L119.32917,22.4440914 Z M114.301903,28.5128483 L114.301903,27.7791775 C114.872323,27.7708438 115.227565,27.7486207 115.365168,27.708187 C115.506157,27.6696053 115.635448,27.5927504 115.755504,27.4791657 C115.874636,27.3695935 116.044562,27.0779154 116.268974,26.611539 C116.398265,26.3442446 116.866791,25.3303159 117.673321,23.5716048 L120.37458,17.4682787 C120.669795,16.7984993 121.300243,15.3036875 122.266539,12.9897077 L122.955476,12.9897077 L127.571166,23.8407512 C128.318591,25.5997709 128.816362,26.7029006 129.060476,27.1507577 C129.196231,27.4041627 129.34584,27.56991 129.5093,27.6492341 C129.67153,27.7282495 130.036931,27.7708438 130.607043,27.7791775 L130.607043,28.5128483 C129.483442,28.4437097 128.696922,28.4072886 128.250252,28.4072886 L124.773246,28.5128483 L124.773246,27.7791775 C125.577621,27.7649794 126.06708,27.7384351 126.2407,27.7020139 C126.413088,27.6649755 126.530065,27.6149735 126.590401,27.5461436 C126.6532,27.4770051 126.681828,27.3936685 126.681828,27.29243 C126.681828,27.1322385 126.632882,26.9276008 126.53222,26.6745045 L125.206063,23.3641893 L118.959151,23.3641893 L117.786297,26.1451627 C117.57666,26.6442563 117.471381,27.0069249 117.471381,27.2377982 C117.471381,27.3390367 117.499701,27.4223733 117.55819,27.4871907 C117.637304,27.5804042 117.760438,27.6452216 117.926362,27.6816428 C118.191101,27.7384351 118.659935,27.7708438 119.327015,27.7791775 L119.327015,28.5128483 C118.112295,28.4480309 117.200485,28.4156222 116.594049,28.4156222 C115.8968,28.4156222 115.130597,28.4480309 114.301903,28.5128483 L114.301903,28.5128483 Z" id="Fill-20" fill="#0C0A09"></path>
                        <path d="M131.739263,28.5128483 L131.739263,27.8217717 C132.49931,27.81529 132.99708,27.7569544 133.235345,27.6492341 C133.336315,27.6047879 133.408965,27.53781 133.453909,27.4424358 C133.525942,27.3007636 133.575196,26.9214277 133.607211,26.3118359 C133.639534,25.3590207 133.659851,24.5398527 133.659851,23.8506281 L133.659851,15.053369 C133.659851,14.815088 133.64569,14.6610697 133.615215,14.5891532 C133.558881,14.4592099 133.429282,14.3045742 133.227649,14.1240115 C133.097743,14.0095009 132.947826,13.9363498 132.778825,13.9039411 C132.610746,13.8712238 132.234571,13.8511613 131.652761,13.8440623 L131.652761,13.1520598 C132.895494,13.1804559 133.678013,13.1949627 133.997547,13.1949627 C134.541185,13.1949627 135.078974,13.1804559 135.616455,13.1520598 C136.21889,13.9505479 136.663713,14.5400772 136.947229,14.9203391 L139.152257,17.6729163 L142.368834,21.5993051 C143.399468,22.8518234 144.226315,23.8367387 144.850914,24.5562114 C145.247099,25.0306127 145.582332,25.4056275 145.851688,25.679095 L145.851688,17.7994645 C145.851688,17.0954245 145.825215,16.2694662 145.776884,15.3206635 C145.748256,14.7237264 145.70208,14.3539588 145.63528,14.210126 C145.58695,14.1166038 145.510299,14.0490086 145.408713,14.0064143 C145.17014,13.9048671 144.680989,13.8511613 143.931101,13.8440623 L143.931101,13.1520598 C144.78042,13.1804559 145.639282,13.1949627 146.510765,13.1949627 C147.328993,13.1949627 148.07334,13.1804559 148.742575,13.1520598 L148.742575,13.8440623 C147.992071,13.8511613 147.494916,13.9048671 147.256959,14.0064143 C147.155373,14.0490086 147.083032,14.1206163 147.038703,14.2221635 C146.965746,14.3601319 146.9168,14.7369986 146.886325,15.3561587 C146.852463,16.3068133 146.8343,17.1256726 146.8343,17.8087241 L146.8343,23.0033726 C146.8343,24.057735 146.852463,26.0195405 146.886325,28.8937274 L145.776884,28.5677887 L145.517994,28.5128483 C145.473358,28.5005021 145.43334,28.4761184 145.398862,28.4480309 C145.348377,28.4113011 145.210466,28.2656163 144.988517,28.0100507 C144.390392,27.3248386 143.953265,26.807843 143.672519,26.4593725 L142.279254,24.6759692 L134.630149,15.413877 L134.630149,23.7984656 C134.630149,24.5114565 134.65416,25.3546995 134.704646,26.3238734 C134.735429,26.9276008 134.781912,27.3007636 134.84625,27.4381147 C134.897043,27.5415138 134.972155,27.6128129 135.072509,27.6572591 C135.308927,27.7588063 135.803004,27.81529 136.550737,27.8217717 L136.550737,28.5128483 C135.918442,28.4643896 135.220271,28.4400059 134.458685,28.4400059 C133.623526,28.4400059 132.717873,28.4643896 131.739263,28.5128483" id="Fill-21" fill="#0C0A09"></path>
                        <path d="M153.555588,22.4440914 L158.993815,22.4440914 L156.308871,15.9342678 L153.555588,22.4440914 Z M148.52986,28.5128483 L148.52986,27.7791775 C149.099972,27.7708438 149.453983,27.7486207 149.593433,27.708187 C149.735037,27.6696053 149.864636,27.5927504 149.981306,27.4791657 C150.102593,27.3695935 150.272519,27.0779154 150.495084,26.611539 C150.62653,26.3442446 151.093209,25.3303159 151.900047,23.5716048 L154.602537,17.4682787 C154.89806,16.7984993 155.528815,15.3036875 156.490494,12.9897077 L157.181894,12.9897077 L161.797584,23.8407512 C162.545009,25.5997709 163.042472,26.7029006 163.287509,27.1507577 C163.424804,27.4041627 163.574412,27.56991 163.736026,27.6492341 C163.89764,27.7282495 164.263349,27.7708438 164.831922,27.7791775 L164.831922,28.5128483 C163.70986,28.4437097 162.923032,28.4072886 162.473899,28.4072886 L159.001819,28.5128483 L159.001819,27.7791775 C159.806194,27.7649794 160.295037,27.7384351 160.465271,27.7020139 C160.63889,27.6649755 160.755868,27.6149735 160.816819,27.5461436 C160.877463,27.4770051 160.909785,27.3936685 160.909785,27.29243 C160.909785,27.1322385 160.858993,26.9276008 160.758022,26.6745045 L159.434328,23.3641893 L153.183722,23.3641893 L152.010868,26.1451627 C151.805233,26.6442563 151.699646,27.0069249 151.699646,27.2377982 C151.699646,27.3390367 151.727966,27.4223733 151.784916,27.4871907 C151.865569,27.5804042 151.986856,27.6452216 152.15278,27.6816428 C152.419366,27.7384351 152.886353,27.7708438 153.555588,27.7791775 L153.555588,28.5128483 C152.338405,28.4480309 151.429366,28.4156222 150.822313,28.4156222 C150.122603,28.4156222 149.358862,28.4480309 148.52986,28.5128483 L148.52986,28.5128483 Z" id="Fill-22" fill="#0C0A09"></path>
                        <path d="M50.8895709,2.594855 L50.8895709,2.37108078 L53.3762687,2.37108078 L53.3762687,2.594855 C52.4949347,2.594855 52.3576399,2.76523206 52.3576399,3.83132332 L52.3576399,6.3872879 C52.3576399,8.05926715 51.2091045,8.94417845 49.7970616,8.94417845 C48.3933302,8.94417845 47.246334,8.05926715 47.246334,6.3872879 L47.246334,3.83132332 C47.246334,2.76523206 47.1198134,2.594855 46.2372481,2.594855 L46.2372481,2.37108078 L49.1059701,2.37108078 L49.1059701,2.594855 C48.2234049,2.594855 48.0959608,2.76523206 48.0959608,3.83132332 L48.0959608,6.44099372 C48.0959608,7.82530734 48.8938713,8.46452998 49.9559049,8.46452998 C51.0718097,8.46452998 51.9106623,7.82530734 51.9106623,6.44099372 L51.9106623,3.83132332 C51.9106623,2.76523206 51.7721362,2.594855 50.8895709,2.594855" id="Fill-23" fill="#0C0A09"></path>
                        <path d="M63.7589552,3.83132332 C63.7589552,2.76523206 63.6302799,2.594855 62.7489459,2.594855 L62.7489459,2.37108078 L65.1709981,2.37108078 L65.1709981,2.594855 C64.2893563,2.594855 64.1508302,2.76523206 64.1508302,3.83132332 L64.1508302,8.94417845 L63.9073321,8.94417845 L59.5831623,3.58594331 L59.5831623,7.29318768 C59.5831623,8.35835297 59.7204571,8.53953293 60.6033302,8.53953293 L60.6033302,8.76268984 L58.181278,8.76268984 L58.181278,8.53953293 C59.0626119,8.53953293 59.190056,8.35835297 59.190056,7.29318768 L59.190056,3.83132332 C59.190056,2.76523206 59.0626119,2.594855 58.181278,2.594855 L58.181278,2.37108078 L59.6782836,2.37108078 L63.7589552,7.44226761 L63.7589552,3.83132332" id="Fill-24" fill="#0C0A09"></path>
                        <path d="M70.2367444,8.76268984 L70.2367444,8.53953293 C71.1180784,8.53953293 71.2452146,8.35835297 71.2452146,7.29318768 L71.2452146,3.83132332 C71.2452146,2.76523206 71.1180784,2.594855 70.2367444,2.594855 L70.2367444,2.37108078 L73.1051586,2.37108078 L73.1051586,2.594855 C72.2229011,2.594855 72.0954571,2.76523206 72.0954571,3.83132332 L72.0954571,7.29318768 C72.0954571,8.35835297 72.2229011,8.53953293 73.1051586,8.53953293 L73.1051586,8.76268984 L70.2367444,8.76268984" id="Fill-25" fill="#0C0A09"></path>
                        <path d="M83.5466418,3.52205191 L81.2095522,8.94417845 L81.0722575,8.94417845 L78.7228545,3.52205191 C78.3940858,2.76523206 78.3411381,2.594855 77.4573414,2.594855 L77.4573414,2.37108078 L80.4008675,2.37108078 L80.4008675,2.594855 C79.5195336,2.594855 79.3175933,2.81893788 79.5721735,3.4044547 L81.3794776,7.54875327 L83.1646175,3.4044547 C83.4191978,2.82912346 83.2169496,2.594855 82.3353078,2.594855 L82.3353078,2.37108078 L84.81,2.37108078 L84.81,2.594855 C83.9283582,2.594855 83.8760261,2.76523206 83.5466418,3.52205191" id="Fill-26" fill="#0C0A09"></path>
                        <path d="M89.1744963,8.53953293 C90.0555224,8.53953293 90.1851213,8.35835297 90.1851213,7.29318768 L90.1851213,3.83132332 C90.1851213,2.76523206 90.0555224,2.594855 89.1744963,2.594855 L89.1744963,2.37108078 L94.0179851,2.37108078 L94.1149534,3.7776175 L93.8923881,3.7776175 L93.838209,3.56464618 C93.6901399,3.01030342 93.5854757,2.76523206 92.6071735,2.76523206 L91.0338246,2.76523206 L91.0338246,5.18446288 L91.5639179,5.18446288 C92.6271828,5.18446288 92.7971082,5.05544547 92.7971082,4.16065724 L93.0212127,4.16065724 L93.0212127,6.59995058 L92.7971082,6.59995058 C92.7971082,5.70516235 92.6271828,5.5776882 91.5639179,5.5776882 L91.0338246,5.5776882 L91.0338246,7.1329962 C91.0338246,8.19847015 91.1612687,8.36853856 92.0447575,8.36853856 L92.9562593,8.36853856 C93.9330224,8.36853856 94.05,8.12315855 94.1891418,7.55955617 L94.2423974,7.34596753 L94.4671175,7.34596753 L94.3815392,8.76268984 L89.1744963,8.76268984 L89.1744963,8.53953293" id="Fill-27" fill="#0C0A09"></path>
                        <path d="M103.866884,4.17084283 C103.866884,3.4044547 103.442071,2.76523206 102.516101,2.76523206 L101.582127,2.76523206 L101.582127,5.5776882 L102.516101,5.5776882 C103.442071,5.5776882 103.866884,4.94926846 103.866884,4.17084283 Z M103.963545,7.18577605 C104.588144,7.93179301 105.29986,8.46452998 105.936772,8.53953293 L105.936772,8.76268984 L104.184263,8.76268984 L102.081744,5.96134525 L101.582127,5.96134525 L101.582127,7.29318768 C101.582127,8.35835297 101.709879,8.53953293 102.591521,8.53953293 L102.591521,8.76268984 L99.7224907,8.76268984 L99.7224907,8.53953293 C100.603517,8.53953293 100.733116,8.35835297 100.733116,7.29318768 L100.733116,3.83132332 C100.733116,2.76523206 100.603517,2.594855 99.7224907,2.594855 L99.7224907,2.37108078 L102.528414,2.37108078 C104.004179,2.37108078 104.812556,3.1819151 104.812556,4.17084283 C104.812556,5.09834839 104.121465,5.83387111 102.920289,5.96134525 L103.963545,7.18577605 L103.963545,7.18577605 Z" id="Fill-28" fill="#0C0A09"></path>
                        <path d="M111.087481,8.94417845 L110.877229,8.94417845 L110.877229,6.59995058 L111.087481,6.59995058 C111.087481,6.59995058 111.109646,8.51854445 113.054552,8.51854445 C113.80875,8.51854445 114.382864,8.02778443 114.382864,7.34596753 C114.382864,6.85551617 113.893713,6.44099372 113.161679,6.05671936 L112.138433,5.53509394 C111.524608,5.21563695 110.962192,4.5872172 110.962192,3.7776175 C110.962192,2.89394082 111.693918,2.19051813 112.725168,2.19051813 C113.351922,2.19051813 113.703162,2.39330388 114.020541,2.62726368 C114.148293,2.52108667 114.277584,2.3608952 114.330532,2.13681232 L114.540476,2.13681232 L114.540476,4.48104019 L114.317603,4.48104019 C114.245261,3.62853758 113.92542,2.61615213 112.692845,2.61615213 C112.098722,2.61615213 111.661287,3.0319092 111.661287,3.56464618 C111.661287,4.11806297 112.033769,4.40572859 112.947425,4.88537706 L113.966054,5.40731114 C114.784897,5.82275956 115.074263,6.44099372 115.074263,7.02681919 C115.074263,8.18797591 114.148293,8.94417845 113.054552,8.94417845 C112.24556,8.94417845 111.736707,8.51854445 111.396856,8.4435415 C111.269412,8.55002717 111.141968,8.70898403 111.087481,8.94417845" id="Fill-29" fill="#0C0A09"></path>
                        <path d="M120.309935,8.76268984 L120.309935,8.53953293 C121.190653,8.53953293 121.31625,8.35835297 121.31625,7.29318768 L121.31625,3.83132332 C121.31625,2.76523206 121.190653,2.594855 120.309935,2.594855 L120.309935,2.37108078 L123.176194,2.37108078 L123.176194,2.594855 C122.294552,2.594855 122.167416,2.76523206 122.167416,3.83132332 L122.167416,7.29318768 C122.167416,8.35835297 122.294552,8.53953293 123.176194,8.53953293 L123.176194,8.76268984 L120.309935,8.76268984" id="Fill-30" fill="#0C0A09"></path>
                        <path d="M134.658778,3.81002618 L134.435905,3.81002618 L134.383573,3.59612889 C134.233965,3.0319092 134.128377,2.78745516 133.150382,2.78745516 L131.75958,2.78745516 L131.75958,7.29318768 C131.75958,8.35835297 131.896875,8.53953293 132.778825,8.53953293 L132.778825,8.76268984 L129.899636,8.76268984 L129.899636,8.53953293 C130.78097,8.53953293 130.918881,8.35835297 130.918881,7.29318768 L130.918881,2.78745516 L129.528078,2.78745516 C128.551315,2.78745516 128.444188,3.0319092 128.294888,3.59612889 L128.24194,3.81002618 L128.019991,3.81002618 L128.114804,2.37108078 L134.565196,2.37108078 L134.658778,3.81002618" id="Fill-31" fill="#0C0A09"></path>
                        <path d="M142.936483,7.29318768 C142.936483,8.35835297 143.063619,8.53953293 143.945261,8.53953293 L143.945261,8.76268984 L141.078694,8.76268984 L141.078694,8.53953293 C141.960336,8.53953293 142.085009,8.35835297 142.085009,7.29318768 L142.085009,6.25950511 L140.322649,3.52205191 C139.866129,2.81893788 139.538284,2.594855 138.782239,2.594855 L138.782239,2.37108078 L141.81042,2.37108078 L141.81042,2.594855 C140.91708,2.594855 140.91708,2.91400334 141.236306,3.4044547 L142.766558,5.74775661 L144.317435,3.4044547 C144.6893,2.82912346 144.63666,2.594855 143.743013,2.594855 L143.743013,2.37108078 L146.229711,2.37108078 L146.229711,2.594855 C145.336063,2.594855 145.113806,2.89394082 144.6893,3.52205191 L142.936483,6.18542812 L142.936483,7.29318768" id="Fill-32" fill="#0C0A09"></path>
                        <path d="M154.218666,4.25510539 C153.782155,4.1952265 153.422295,4.65944226 153.22805,5.2684168 C153.034114,5.87646537 153.074132,6.40364657 153.508797,6.46414277 C153.943461,6.52402167 154.299627,6.05085494 154.491716,5.44280636 C154.6875,4.83352317 154.645019,4.31374967 154.218666,4.25510539 Z M153.440765,6.68915161 C152.831866,6.60488904 152.528955,5.93634427 152.754907,5.20329078 C152.995019,4.47178057 153.676875,3.94583399 154.285159,4.03102252 C154.887901,4.11405047 155.188657,4.77395293 154.954701,5.50638911 C154.724132,6.23820797 154.042892,6.77217956 153.440765,6.68915161 L153.440765,6.68915161 Z" id="Fill-33" fill="#0C0A09"></path>
                        <path d="M156.450476,4.70913557 L156.721371,3.9995398 C157.048601,3.15413623 157.693517,2.65257332 158.128181,2.63127618 C158.560998,2.61090501 158.690289,2.91307738 158.609328,3.12913524 C158.565,3.23747283 158.472034,3.31124116 158.352285,3.31648828 C158.050914,3.33161233 158.411082,2.82202442 158.019207,2.84023501 C157.796642,2.85042059 157.426623,3.1785199 157.113554,3.98040325 L156.840504,4.69061633 L156.737379,4.9409348 L155.61347,7.84475255 C155.285625,8.68953882 154.861735,9.00405734 154.448927,9.02411986 C154.036735,9.04449103 153.925914,8.75373887 154.012416,8.54478005 C154.058899,8.43119534 154.146017,8.34230296 154.287621,8.33612988 C154.588377,8.32162313 154.186343,8.83275432 154.566521,8.81546969 C154.774618,8.80528411 154.954701,8.55095313 155.221595,7.86265449 L156.345196,4.96038001 L156.450476,4.70913557" id="Fill-34" fill="#0C0A09"></path>
                        <polyline id="Fill-35" fill="#0C0A09" points="157.064916 5.35854379 155.646101 5.35854379 155.76708 5.10822532 157.165886 5.10822532 157.064916 5.35854379"></polyline>
                        <path d="M51.0773507,37.9619848 C51.6031343,37.9619848 51.7037966,37.818152 51.7515112,36.9687359 L51.8968097,34.2102943 C51.9454478,33.3611868 51.8607929,33.2250704 51.333778,33.2250704 L51.3390112,33.0472856 L53.1179944,33.0472856 L53.1127612,33.2250704 C52.5802052,33.2250704 52.4860075,33.3611868 52.4469123,34.2102943 L52.3034608,36.8409531 C52.2545149,37.6903692 52.3305504,37.8264857 52.8560261,37.8264857 L53.6089925,37.8264857 C54.1941884,37.8264857 54.2711474,37.6317249 54.3773507,37.1823246 L54.4158302,37.0113302 L54.5503545,37.0113302 L54.4358396,38.1425475 L51.0659608,38.1425475 L51.0773507,37.9619848" id="Fill-36" fill="#0C0A09"></path>
                        <path d="M64.3927892,34.0562759 L63.6398228,36.0609842 L64.9358116,36.0609842 L64.3927892,34.0562759 Z M63.1599067,37.3172064 C62.986903,37.786052 63.0931063,37.9619848 63.6278172,37.9619848 L63.6238153,38.1425475 L62.056931,38.1425475 L62.0689366,37.9619848 C62.5260728,37.9619848 62.6313526,37.8428443 62.8677705,37.2243015 L64.4891418,32.9031441 L64.6495243,32.9031441 L65.8233022,37.2243015 C65.9901493,37.8264857 66.0575653,37.9619848 66.5310168,37.9619848 L66.5276306,38.1425475 L64.7234049,38.1425475 L64.736334,37.9619848 C65.2621175,37.9619848 65.3987966,37.7758664 65.2661194,37.3172064 L65.015541,36.3751941 L63.5176119,36.3751941 L63.1599067,37.3172064 L63.1599067,37.3172064 Z" id="Fill-37" fill="#0C0A09"></path>
                        <path d="M76.5058209,35.2887317 L76.8210448,35.2887317 C77.4539552,35.2887317 77.5690858,35.1853325 77.6011007,34.4735762 L77.7350093,34.4735762 L77.638041,36.4177884 L77.5007463,36.4177884 C77.5410728,35.7041801 77.4336381,35.6044848 76.7991884,35.6044848 L76.4851959,35.6044848 L76.4153172,36.9687359 C76.3765299,37.818152 76.4451772,37.9619848 76.9789646,37.9619848 L76.966959,38.1425475 L75.1879757,38.1425475 L75.1999813,37.9619848 C75.7257649,37.9619848 75.8264272,37.818152 75.8750653,36.9687359 L76.0188246,34.2102943 C76.0693097,33.3611868 75.984347,33.2250704 75.4585634,33.2250704 L75.4625653,33.0472856 L78.5110634,33.0472856 L78.5110634,34.1680086 L78.3777705,34.1680086 L78.3574534,33.9991748 C78.2928078,33.5577995 78.236166,33.3611868 77.6518937,33.3611868 L76.6114086,33.3611868 L76.5058209,35.2887317" id="Fill-38" fill="#0C0A09"></path>
                        <path d="M88.3559608,34.0562759 L87.599916,36.0609842 L88.8983675,36.0609842 L88.3559608,34.0562759 Z M87.1187687,37.3172064 C86.949459,37.786052 87.0538153,37.9619848 87.5879104,37.9619848 L87.5839086,38.1425475 L86.0188713,38.1425475 L86.0314925,37.9619848 C86.4883209,37.9619848 86.5911381,37.8428443 86.8297108,37.2243015 L88.4492351,32.9031441 L88.6108489,32.9031441 L89.7855504,37.2243015 C89.9490112,37.8264857 90.0173507,37.9619848 90.4926493,37.9619848 L90.4864925,38.1425475 L88.6853451,38.1425475 L88.6976586,37.9619848 C89.2209795,37.9619848 89.3588899,37.7758664 89.229291,37.3172064 L88.9768657,36.3751941 L87.4786287,36.3751941 L87.1187687,37.3172064 L87.1187687,37.3172064 Z" id="Fill-39" fill="#0C0A09"></path>
                        <path d="M100.521632,36.9687359 C100.472687,37.818152 100.549953,37.9619848 101.075429,37.9619848 L101.071735,38.1425475 L99.2761287,38.1425475 L99.2865951,37.9619848 C99.8142257,37.9619848 99.911194,37.818152 99.9635261,36.9687359 L99.9878451,36.5452625 C100.113134,34.1251057 99.5248601,33.2599483 99.0498694,33.2599483 C98.9165765,33.2599483 98.7343377,33.3793974 98.6579944,33.4562523 L98.6373694,33.2599483 C98.8134515,33.0472856 99.0658769,32.9636404 99.2518097,32.9636404 C99.8945709,32.9636404 100.287369,33.5923687 100.454832,35.4668251 C100.80084,34.0078172 101.224729,32.971974 101.928442,32.971974 C102.292304,32.971974 102.488396,33.2599483 102.47208,33.480636 C102.462229,33.6084188 102.39389,33.7201515 102.247668,33.7201515 C101.934291,33.7201515 102.087901,33.3124195 101.774832,33.3124195 C101.259207,33.3124195 100.610597,35.3495365 100.549953,36.5125452 L100.521632,36.9687359" id="Fill-40" fill="#0C0A09"></path>
                        <path d="M111.193069,37.9619848 C111.716698,37.9619848 111.817668,37.818152 111.866306,36.9687359 L112.011912,34.2102943 C112.060858,33.3611868 111.97528,33.2250704 111.449804,33.2250704 L111.453806,33.0472856 L114.401334,33.0472856 L114.393022,34.1680086 L114.259729,34.1680086 L114.237257,33.9991748 C114.176922,33.5577995 114.118125,33.3611868 113.533853,33.3611868 L112.602649,33.3611868 L112.500756,35.2887317 L112.812593,35.2887317 C113.446735,35.2887317 113.562481,35.1853325 113.594804,34.4735762 L113.730252,34.4735762 L113.628974,36.4177884 L113.491371,36.4177884 C113.531698,35.7041801 113.426726,35.6044848 112.791968,35.6044848 L112.478591,35.6044848 L112.420103,36.8409531 C112.371772,37.6903692 112.444422,37.8264857 112.97236,37.8264857 L113.513843,37.8264857 C114.098116,37.8264857 114.175075,37.6317249 114.279739,37.1823246 L114.320373,37.0113302 L114.453666,37.0113302 L114.338228,38.1425475 L111.183218,38.1425475 L111.193069,37.9619848" id="Fill-41" fill="#0C0A09"></path>
                        <path d="M146.569254,37.9619848 C147.094729,37.9619848 147.196623,37.818152 147.244646,36.9687359 L147.389944,34.2102943 C147.43889,33.3611868 147.353619,33.2250704 146.828451,33.2250704 L146.832453,33.0472856 L149.779674,33.0472856 L149.771978,34.1680086 L149.635914,34.1680086 L149.615597,33.9991748 C149.553414,33.5577995 149.496772,33.3611868 148.912808,33.3611868 L147.980681,33.3611868 L147.879403,35.2887317 L148.19278,35.2887317 C148.82569,35.2887317 148.938666,35.1853325 148.971297,34.4735762 L149.108591,34.4735762 L149.007313,36.4177884 L148.869711,36.4177884 C148.910345,35.7041801 148.805373,35.6044848 148.170924,35.6044848 L147.857239,35.6044848 L147.799058,36.8409531 C147.750112,37.6903692 147.824916,37.8264857 148.348545,37.8264857 L148.892183,37.8264857 C149.4743,37.8264857 149.553414,37.6317249 149.659002,37.1823246 L149.696866,37.0113302 L149.832006,37.0113302 L149.715028,38.1425475 L146.559095,38.1425475 L146.569254,37.9619848" id="Fill-42" fill="#0C0A09"></path>
                        <path d="M124.773862,33.3284695 L124.577463,36.9283022 C124.528825,37.7758664 124.608246,37.9193905 125.131567,37.9193905 L125.129412,38.0981013 L123.352276,38.0981013 L123.354431,37.9193905 C123.888218,37.9193905 123.989188,37.7758664 124.035672,36.9283022 L124.229608,33.3284695 L123.732761,33.3284695 C122.960093,33.3284695 122.857276,33.5130446 122.719981,33.9729393 L122.531586,33.9729393 L122.751688,33.0043827 L125.317192,33.0043827" id="Fill-43" fill="#0C0A09"></path>
                        <path d="M123.652108,33.0043827 L126.214841,33.0043827 L126.437099,33.9729393 L126.247164,33.9729393 C126.109869,33.5130446 126.004897,33.3284695 125.236847,33.3284695 L124.737537,33.3284695" id="Fill-44" fill="#0C0A09"></path>
                        <path d="M136.75514,33.3713724 L136.561203,36.9687359 C136.512257,37.818152 136.589524,37.9619848 137.115308,37.9619848 L137.111306,38.1425475 L135.332323,38.1425475 L135.336325,37.9619848 C135.869804,37.9619848 135.970774,37.818152 136.019412,36.9687359 L136.213657,33.3713724 L135.711884,33.3713724 C134.943834,33.3713724 134.838862,33.5556389 134.701259,34.0136816 L134.515019,34.0136816 L134.731735,33.0472856 L137.300933,33.0472856" id="Fill-45" fill="#0C0A09"></path>
                        <path d="M135.631231,33.0472856 L138.196735,33.0472856 L138.416838,34.0136816 L138.230905,34.0136816 C138.091455,33.5556389 137.98833,33.3713724 137.218125,33.3713724 L136.718815,33.3713724" id="Fill-46" fill="#0C0A09"></path>
                    </g>
                </g>
            </g>
        </g>
    </g>
</svg>