<?xml version="1.0" encoding="UTF-8"?>
<svg width="180px" height="159px" viewBox="0 0 180 159" version="1.1" xmlns="http://www.w3.org/2000/svg" xmlns:xlink="http://www.w3.org/1999/xlink">
    <!-- Generator: Sketch 55.1 (78136) - https://sketchapp.com -->
    <title>Logo/vertical</title>
    <desc>Created with Sketch.</desc>
    <g id="Symbols" stroke="none" stroke-width="1" fill="none" fill-rule="evenodd">
        <g id="Wrapper/footer/desktop" transform="translate(-140.000000, -50.000000)">
            <g id="Logo/vertical" transform="translate(140.000000, 50.000000)">
                <g id="UL-Lafayette-Vertical-Logo">
                    <path d="M117.317516,29.705007 C109.303602,29.705007 104.094783,34.7538169 104.094783,34.7538169 C100.64795,10.378669 89.8647205,0.812915493 89.8647205,0.812915493 C89.8647205,0.812915493 79.0658385,10.378669 75.6290683,34.7538169 C75.6290683,34.7538169 70.4202484,29.705007 62.3985093,29.705007 C52.2190062,29.705007 47.0146584,38.8967746 47.0146584,45.9420423 C47.0146584,55.757493 58.0449689,60.7783099 58.0449689,60.7783099 C58.0449689,60.7783099 57.5049689,58.6071761 57.5049689,56.6275141 C57.5049689,54.1025493 58.406087,47.9799296 65.882236,47.9799296 C75.0231056,47.9799296 75.9924224,54.8796338 75.9924224,54.8796338 C75.9924224,54.8796338 71.8781366,56.9858239 75.6581366,59.6731479 C75.6581366,59.6731479 74.248323,62.6515986 70.4124224,62.6515986 C66.5776398,62.6515986 65.6776398,58.1156197 66.7296894,56.7305282 C66.7296894,56.7305282 60.0730435,59.0707394 60.0730435,66.7945563 C60.0730435,74.5161338 65.3713043,77.6603028 70.741118,77.6603028 C75.0130435,77.6603028 77.8863354,75.5429155 77.8863354,75.5429155 C81.6372671,88.6592958 89.8647205,94.2231761 89.8647205,94.2231761 C89.8647205,94.2231761 98.0809938,88.6592958 101.83528,75.5429155 C101.83528,75.5429155 104.707453,77.6603028 108.978261,77.6603028 C114.343602,77.6603028 119.645217,74.5161338 119.645217,66.7945563 C119.645217,59.0707394 112.988571,56.7305282 112.988571,56.7305282 C114.041739,58.1156197 113.143975,62.6515986 109.310311,62.6515986 C105.471056,62.6515986 104.05677,59.6731479 104.05677,59.6731479 C107.84236,56.9858239 103.728075,54.8796338 103.728075,54.8796338 C103.728075,54.8796338 104.690683,47.9799296 113.829317,47.9799296 C121.318882,47.9799296 122.20882,54.1025493 122.20882,56.6275141 C122.20882,58.6071761 121.67441,60.7783099 121.67441,60.7783099 C121.67441,60.7783099 132.700248,55.757493 132.700248,45.9420423 C132.700248,38.8967746 127.500373,29.705007 117.317516,29.705007" id="Fill-1" fill="#1A1919"></path>
                    <path d="M99.7356522,91.6500634 L99.1185093,91.6500634 L99.1185093,91.0756479 L99.7356522,91.0756479 C99.895528,91.0756479 100.022981,91.2044155 100.022981,91.3656549 C100.022981,91.5235352 99.895528,91.6500634 99.7356522,91.6500634 M100.518261,91.3656549 C100.518261,90.9323239 100.167205,90.5852113 99.7356522,90.5852113 L98.6221118,90.5852113 L98.6221118,93.217669 L99.1185093,93.217669 L99.1185093,92.1460986 L99.4718012,92.1460986 L99.9715528,93.217669 L100.518261,93.217669 L99.9983851,92.1024296 C100.300248,91.9971761 100.518261,91.7026901 100.518261,91.3656549" id="Fill-2" fill="#AEADA9"></path>
                    <path d="M99.5713043,93.7137042 C98.5684472,93.7137042 97.7578882,92.9019085 97.7578882,91.8997606 C97.7578882,90.8976127 98.5684472,90.0891761 99.5713043,90.0891761 C100.570807,90.0891761 101.383602,90.8976127 101.383602,91.8997606 C101.383602,92.9019085 100.570807,93.7137042 99.5713043,93.7137042 M99.5713043,89.5931408 C98.2967702,89.5931408 97.2659627,90.6266408 97.2659627,91.8997606 C97.2659627,93.1773592 98.2967702,94.2108592 99.5713043,94.2108592 C100.843602,94.2108592 101.881118,93.1773592 101.881118,91.8997606 C101.881118,90.6266408 100.843602,89.5931408 99.5713043,89.5931408" id="Fill-3" fill="#AEADA9"></path>
                    <path d="M124.137391,57.6878873 C129.823602,50.7467535 126.031304,38.9538803 116.377267,38.9538803 C105.69913,38.9538803 100.380745,53.4844648 100.380745,53.4844648 C100.380745,53.4844648 99.7043478,53.3030704 98.7495652,53.0925634 C98.4208696,53.0365775 98.1614907,52.9738732 97.8149068,52.9010915 C97.2458385,52.7902394 96.6432298,52.6782676 96.0395031,52.5998873 C97.4001242,47.0707183 105.267578,32.066493 116.807702,32.066493 C125.549441,32.066493 130.425093,38.0805 130.425093,46.543331 C130.425093,53.8584507 124.137391,57.6878873 124.137391,57.6878873 M108.940248,71.2431972 C112.928199,71.2431972 115.849565,66.7945563 115.849565,64.0064577 C115.849565,62.0771831 114.752795,60.2285282 114.752795,60.2285282 C115.145217,62.3828662 112.51677,65.0645915 110.092919,65.0645915 C107.976522,65.0645915 106.864099,63.6627042 106.864099,63.6627042 L107.10559,63.397331 C107.10559,63.397331 108.205714,64.395 109.846957,64.395 C113.492795,64.395 114.857888,60.5286127 114.547081,59.5119085 C115.679627,60.4759859 117.874286,62.3212817 117.874286,67.2502817 C117.874286,71.0797183 115.164224,75.8721127 109.058758,75.8721127 C98.284472,75.8721127 95.2870807,62.2395423 95.2870807,62.2395423 C97.1754037,62.061507 100.153789,61.3639225 100.153789,61.3639225 C100.153789,61.3639225 100.358385,71.2431972 108.940248,71.2431972 M89.8647205,89.9122606 C89.8647205,89.9122606 83.6776398,86.3414789 80.0921739,73.624838 C80.0921739,73.624838 84.0790062,68.7059155 86.1171429,62.4030211 L88.8406211,62.4030211 L82.803354,75.330169 C85.0852174,83.4660423 89.8647205,87.1510352 89.8647205,87.1510352 L89.8647205,62.4030211 L91.0330435,62.4030211 C91.5741615,62.3985423 91.8223602,62.3985423 92.3947826,62.4030211 L93.603354,62.4030211 C95.6392547,68.7059155 99.6227329,73.624838 99.6227329,73.624838 C96.0450932,86.3414789 89.8647205,89.9122606 89.8647205,89.9122606 M70.6617391,75.8721127 C64.5562733,75.8721127 61.8450932,71.0797183 61.8450932,67.2502817 C61.8450932,62.3212817 64.0375155,60.4759859 65.1667081,59.5119085 C64.8581366,60.5286127 66.2277019,64.395 69.8668323,64.395 C71.5091925,64.395 72.6137888,63.397331 72.6137888,63.397331 L72.8575155,63.6627042 C72.8575155,63.6627042 71.7361491,65.0645915 69.6197516,65.0645915 C67.1959006,65.0645915 64.5763975,62.3828662 64.9609938,60.2285282 C64.9609938,60.2285282 63.8709317,62.0771831 63.8709317,64.0064577 C63.8709317,66.7945563 66.7934161,71.2431972 70.7836025,71.2431972 C78.7181366,71.2431972 80.5852174,61.584507 80.5852174,61.584507 C80.5852174,61.584507 82.5383851,62.061507 84.4356522,62.2395423 C84.4356522,62.2395423 81.4404969,75.8721127 70.6617391,75.8721127 M63.3376398,38.9538803 C53.6847205,38.9538803 49.8890683,50.7467535 55.5819876,57.6878873 C55.5819876,57.6878873 49.2909317,53.8584507 49.2909317,46.543331 C49.2909317,38.0805 54.176646,32.066493 62.907205,32.066493 C74.4551553,32.066493 82.3237267,47.0707183 83.6776398,52.5998873 C81.5936646,52.8809366 79.3341615,53.4844648 79.3341615,53.4844648 C79.3341615,53.4844648 74.0168944,38.9538803 63.3376398,38.9538803 M83.1119255,60.4681479 C83.1119255,60.4681479 76.5201242,59.9004507 76.5201242,57.3150211 C76.5201242,55.3252817 81.5936646,53.6098732 89.8647205,53.6098732 C94.0550311,53.6098732 100.566335,53.9961761 100.566335,56.5189014 C100.566335,59.0393873 89.8647205,58.7628169 89.8647205,58.7628169 C76.408323,58.7628169 80.3157764,57.3564507 77.3821118,57.3564507 C78.9618634,59.8802958 83.1119255,60.4681479 83.1119255,60.4681479 M89.8647205,4.4150493 C89.8647205,4.4150493 99.3499379,15.3882887 101.54236,37.7535423 C101.54236,37.7535423 95.8617391,45.2041479 94.7795031,52.4196127 C94.7795031,52.4196127 94.0963975,52.3580282 93.2165217,52.2964437 C94.6945342,43.8078592 99.4561491,37.1063451 99.4561491,37.1063451 C96.6063354,18.3219507 89.8647205,7.01279577 89.8647205,7.01279577 L89.8647205,52.1217676 C89.2922981,52.1217676 88.4001242,52.1676761 87.5269565,52.2247817 C87.2385093,52.2359789 86.8360248,52.2762887 86.4983851,52.2964437 C85.6185093,52.3580282 84.9387578,52.4196127 84.9387578,52.4196127 C83.8520497,45.2041479 78.1747826,37.7535423 78.1747826,37.7535423 C80.3750311,15.3882887 89.8647205,4.4150493 89.8647205,4.4150493" id="Fill-4" fill="#BC2532"></path>
                    <path d="M80.2565217,37.1063451 C80.2565217,37.1063451 85.0203727,43.8078592 86.4983851,52.2964437 C86.8270807,52.2718099 87.1781366,52.2460563 87.5269565,52.2247817 C86.4804969,42.683662 82.4813665,37.1600915 82.4813665,37.1600915 C83.4607453,23.3909155 89.8647205,7.01279577 89.8647205,7.01279577 C89.8647205,7.01279577 83.1119255,18.3219507 80.2565217,37.1063451" id="Fill-5" fill="#FFFFFE"></path>
                    <path d="M96.9708075,76.6749507 C96.9708075,76.6749507 94.5078261,69.888338 92.3947826,62.4030211 L91.0330435,62.4030211 C91.6322981,66.0387465 94.6151553,77.3243873 94.6151553,77.3243873 C93.603354,82.6531268 91.081118,86.4747254 91.081118,86.4747254 C91.081118,86.4747254 94.4530435,84.0740493 96.9708075,76.6749507" id="Fill-6" fill="#FFFFFE"></path>
                    <path d="M79.0401242,56.6566268 C79.0401242,56.6566268 86.9891925,55.2726549 98.8367702,55.6242465 C90.1531677,53.7005704 80.8524224,55.5413873 80.8524224,55.5413873 L79.0401242,56.6566268" id="Fill-7" fill="#FFFFFE"></path>
                    <path d="M63.3778882,34.4638099 C70.6214907,34.4638099 74.2829814,40.1934085 74.2829814,40.1934085 C74.2829814,40.1934085 70.6617391,32.9600282 62.1592547,32.9600282 C55.9363975,32.9600282 50.4816149,38.8139155 50.4816149,45.4045775 C50.4816149,51.9896408 53.0910559,54.6366549 53.0910559,54.6366549 C53.0910559,54.6366549 51.4207453,51.8709507 51.4207453,46.948669 C51.4207453,42.0297465 55.2868323,34.4638099 63.3778882,34.4638099" id="Fill-8" fill="#FFFFFE"></path>
                    <path d="M116.911677,33.6105845 C106.026708,33.6105845 99.5590062,47.1446197 97.8149068,52.9010915 C98.1436025,52.9626761 98.462236,53.0287394 98.7495652,53.0925634 C100.607702,48.5487465 107.321366,34.5477887 117.681988,34.5477887 C122.721988,34.5477887 125.941863,37.718831 125.941863,37.718831 C125.941863,37.718831 122.721988,33.6105845 116.911677,33.6105845" id="Fill-9" fill="#FFFFFE"></path>
                    <path d="M165.900745,152.192113 L165.525093,152.192113 L165.525093,151.801331 L165.900745,151.801331 C165.996894,151.801331 166.076273,151.890908 166.076273,152.000641 C166.076273,152.105894 165.996894,152.192113 165.900745,152.192113 M166.377019,152.000641 C166.377019,151.706155 166.161242,151.469894 165.900745,151.469894 L165.224348,151.469894 L165.224348,153.259204 L165.525093,153.259204 L165.525093,152.530268 L165.739752,152.530268 L166.043851,153.259204 L166.377019,153.259204 L166.060621,152.500035 C166.243975,152.427254 166.377019,152.229063 166.377019,152.000641" id="Fill-10" fill="#AEADA9"></path>
                    <g id="Group-14" transform="translate(0.000000, 122.049296)">
                        <path d="M165.799006,31.5458239 C165.191925,31.5458239 164.697764,30.9938028 164.697764,30.3141338 C164.697764,29.6311056 165.191925,29.0824437 165.799006,29.0824437 C166.408323,29.0824437 166.900248,29.6311056 166.900248,30.3141338 C166.900248,30.9938028 166.408323,31.5458239 165.799006,31.5458239 M165.799006,28.7454085 C165.025342,28.7454085 164.398137,29.4474718 164.398137,30.3141338 C164.398137,31.1807958 165.025342,31.8828592 165.799006,31.8828592 C166.571553,31.8828592 167.202112,31.1807958 167.202112,30.3141338 C167.202112,29.4474718 166.571553,28.7454085 165.799006,28.7454085" id="Fill-11" fill="#AEADA9"></path>
                        <path d="M1.39975155,23.098669 L1.39975155,22.2913521 C2.03701863,21.9901479 2.44285714,21.7505282 2.61950311,21.5758521 C2.72012422,21.4817958 2.79279503,21.3631056 2.8352795,21.218662 C2.92583851,20.9275352 2.9884472,20.3060915 3.01863354,19.3532113 C3.07229814,17.9322887 3.09801242,17.0857817 3.09801242,16.8170493 L3.09801242,8.44939437 C3.09801242,7.04078873 3.08124224,5.66129577 3.0510559,4.31427465 C3.01863354,3.32780282 2.94484472,2.7455493 2.82409938,2.56415493 C2.70559006,2.38276056 2.51329193,2.24839437 2.24944099,2.15993662 C1.98335404,2.07147887 1.23428571,2.01661268 0,1.99757746 L0,1.00102817 C2.53118012,1.07269014 4.09863354,1.10964085 4.70124224,1.10964085 C5.3642236,1.10964085 6.85341615,1.07269014 9.16881988,1.00102817 L9.16881988,1.99757746 C7.93341615,2.01661268 7.18322981,2.07147887 6.91937888,2.15993662 C6.65552795,2.24839437 6.46993789,2.37044366 6.36708075,2.52608451 C6.24298137,2.73099296 6.16360248,3.2348662 6.13229814,4.03322535 C6.12111801,4.24037324 6.0931677,5.71392254 6.05403727,8.44939437 L6.05403727,18.8997254 C6.05403727,19.9880915 6.08086957,20.8749085 6.13229814,21.5579366 C7.31515528,21.631838 8.49018634,21.667669 9.65068323,21.667669 C12.5776398,21.667669 14.6280745,21.4817958 15.8008696,21.1078099 C15.9361491,20.7976479 16.0546584,20.4382183 16.1597516,20.034 L16.7802484,17.4519296 L17.823354,17.4519296 C17.5963975,18.9971408 17.373913,20.8133239 17.1559006,22.8982394 C16.7299379,22.9822183 16.3922981,23.0326056 16.1440994,23.0516408 C15.6029814,23.0852324 14.7722981,23.098669 13.6520497,23.098669 L4.43515528,22.9922958 C3.43900621,22.9922958 2.42720497,23.0281268 1.39975155,23.098669" id="Fill-13" fill="#1A1919"></path>
                    </g>
                    <path d="M22.9013665,132.948634 C22.9013665,133.935106 22.9986335,134.936134 23.1954037,135.951718 C23.3932919,136.968423 23.6414907,137.846282 23.941118,138.580817 C24.4397516,139.827063 25.0915528,140.871761 25.8954037,141.716028 C26.6992547,142.563655 27.5981366,143.185099 28.5898137,143.584838 C29.5803727,143.983458 30.6771429,144.185007 31.8801242,144.185007 C33.5526708,144.185007 35.006087,143.77743 36.2414907,142.962275 C37.4768944,142.149359 38.3981366,141.001648 39.0040994,139.52362 C39.6111801,138.045592 39.9141615,136.340261 39.9141615,134.410986 C39.9141615,132.761641 39.6972671,131.241063 39.2601242,129.850373 C38.9918012,128.999387 38.6318012,128.230141 38.1879503,127.539275 C37.7407453,126.849528 37.2074534,126.24712 36.5903106,125.733169 C35.9742857,125.220338 35.1715528,124.788127 34.1854658,124.434296 C33.2016149,124.081585 32.1361491,123.905789 30.9946584,123.905789 C29.343354,123.905789 27.896646,124.275296 26.6511801,125.010951 C25.4057143,125.747725 24.4688199,126.811458 23.8416149,128.208866 C23.2144099,129.605155 22.9013665,131.183958 22.9013665,132.948634 M19.6602484,134.238549 C19.6602484,132.600401 19.9084472,131.085423 20.4003727,129.695852 C20.8934161,128.306282 21.7106832,127.054437 22.8521739,125.943676 C23.9959006,124.834035 25.286087,123.997606 26.729441,123.431028 C28.171677,122.86669 29.8229814,122.583401 31.678882,122.583401 C33.392795,122.583401 34.9501863,122.824141 36.3499379,123.306739 C37.7508075,123.788218 38.9012422,124.426458 39.7978882,125.220338 C40.6956522,126.014218 41.403354,126.884239 41.9221118,127.828162 C42.3156522,128.533585 42.6309317,129.363296 42.8645963,130.318415 C43.0982609,131.273535 43.2145342,132.295838 43.2145342,133.384204 C43.2145342,136.879965 42.0395031,139.790113 39.689441,142.114648 C37.3371429,144.440303 34.3721739,145.600331 30.7911801,145.600331 C29.162236,145.600331 27.6417391,145.336077 26.2308075,144.80757 C24.8198758,144.277944 23.6258385,143.491901 22.6509317,142.449444 C21.6737888,141.406986 20.9336646,140.141704 20.4249689,138.652479 C19.9162733,137.163254 19.6602484,135.691944 19.6602484,134.238549" id="Fill-15" fill="#1A1919"></path>
                    <path d="M43.7914286,124.046873 L43.7914286,123.050324 C45.4818634,123.121986 47.0560248,123.158937 48.509441,123.158937 C49.9807453,123.158937 51.4453416,123.121986 52.8987578,123.050324 L52.8987578,124.046873 C51.6801242,124.065908 50.936646,124.120775 50.668323,124.209232 C50.402236,124.29769 50.218882,124.419739 50.127205,124.57538 C49.9919255,124.780289 49.9091925,125.284162 49.8801242,126.082521 C49.8655901,126.289669 49.8398758,127.763218 49.7996273,130.49869 L49.7996273,136.252923 C49.7996273,138.482282 49.9438509,139.952472 50.2289441,140.662373 C50.5151553,141.371155 50.9690683,141.961246 51.5918012,142.42593 C52.0691925,142.778641 52.7120497,143.06193 53.5214907,143.274676 C54.3309317,143.488542 55.2342857,143.593796 56.2293168,143.593796 C57.3931677,143.593796 58.4262112,143.451592 59.3284472,143.166063 C60.2306832,142.880535 60.9081988,142.532303 61.3598758,142.122486 C61.8115528,141.713789 62.1480745,141.255824 62.371677,140.748592 C62.5952795,140.240239 62.7551553,139.542655 62.8535404,138.655838 C62.9530435,137.770141 63.001118,136.648183 63.001118,135.288845 L63.001118,130.49869 C63.001118,129.090085 62.9754037,127.710592 62.9262112,126.36357 C62.9038509,125.377099 62.8345342,124.794845 62.7149068,124.613451 C62.5963975,124.433176 62.4040994,124.29769 62.1346584,124.209232 C61.8652174,124.120775 61.1228571,124.065908 59.9031056,124.046873 L59.9031056,123.050324 C61.6125466,123.121986 62.8613665,123.158937 63.6495652,123.158937 C64.3628571,123.158937 65.6519255,123.121986 67.5156522,123.050324 L67.5156522,124.046873 C66.2869565,124.065908 65.5412422,124.120775 65.2785093,124.209232 C65.0157764,124.29769 64.8324224,124.419739 64.7284472,124.57538 C64.6043478,124.782528 64.528323,125.284162 64.4959006,126.082521 C64.4847205,126.290789 64.4657143,127.763218 64.4344099,130.49869 L64.4344099,135.709859 C64.4344099,138.270655 64.255528,140.058845 63.896646,141.076669 C63.538882,142.091134 62.8826087,142.988028 61.9267081,143.765113 C61.2122981,144.347366 60.2899379,144.796373 59.1629814,145.117732 C58.0393789,145.439092 56.791677,145.600331 55.4209938,145.600331 C53.823354,145.600331 52.4392547,145.412218 51.2642236,145.033754 C50.0903106,144.656408 49.1981366,144.158134 48.5854658,143.541169 C47.973913,142.924204 47.5535404,142.294923 47.3254658,141.649965 C47.0347826,140.800099 46.890559,139.374697 46.890559,137.373761 L46.890559,130.49869 C46.890559,129.090085 46.8737888,127.710592 46.8424845,126.36357 C46.8111801,125.377099 46.7362733,124.794845 46.615528,124.613451 C46.4981366,124.433176 46.3047205,124.29769 46.0408696,124.209232 C45.7781366,124.120775 45.0268323,124.065908 43.7914286,124.046873" id="Fill-16" fill="#1A1919"></path>
                    <path d="M78.0093168,144.154775 L78.0093168,145.147965 C75.8023602,145.077423 74.3511801,145.041592 73.6591304,145.041592 L68.8572671,145.147965 L68.8572671,144.154775 C70.0759006,144.13238 70.8160248,144.077514 71.0865839,143.990176 C71.3537888,143.902838 71.5404969,143.779669 71.643354,143.625148 C71.7663354,143.41688 71.8457143,142.914127 71.8747826,142.115768 C71.8893168,141.897423 71.9161491,140.427232 71.9530435,137.699599 L71.9530435,130.49869 C71.9530435,129.090085 71.9385093,127.710592 71.907205,126.36357 C71.8747826,125.377099 71.8009938,124.794845 71.6813665,124.613451 C71.5628571,124.433176 71.369441,124.29769 71.1067081,124.209232 C70.8395031,124.120775 70.0904348,124.065908 68.8572671,124.046873 L68.8572671,123.050324 C70.8350311,123.121986 72.362236,123.158937 73.441118,123.158937 C74.4763975,123.158937 75.9991304,123.121986 78.0093168,123.050324 L78.0093168,124.046873 C76.7806211,124.065908 76.0349068,124.120775 75.7721739,124.209232 C75.509441,124.29769 75.3238509,124.419739 75.2221118,124.57538 C75.0991304,124.780289 75.0186335,125.284162 74.9895652,126.082521 C74.9772671,126.290789 74.9504348,127.763218 74.9113043,130.49869 L74.9113043,137.699599 C74.9113043,139.109324 74.9258385,140.482099 74.9582609,141.821282 C74.9895652,142.804394 75.0655901,143.390007 75.1840994,143.57812 C75.3037267,143.765113 75.4960248,143.902838 75.7598758,143.990176 C76.0259627,144.077514 76.773913,144.13238 78.0093168,144.154775" id="Fill-17" fill="#1A1919"></path>
                    <path d="M79.8763975,144.384317 C80.0429814,143.388887 80.1413665,141.777613 80.1737888,139.546014 L81.2168944,139.546014 C81.268323,141.062113 81.3521739,141.956768 81.4729193,142.232218 C81.5925466,142.50543 81.8821118,142.799915 82.3371429,143.110077 C82.795528,143.421359 83.4081988,143.69793 84.1773913,143.943148 C84.9477019,144.187246 85.6900621,144.310415 86.4078261,144.310415 C87.4565217,144.310415 88.4247205,144.068556 89.3079503,143.583718 C90.1911801,143.1 90.8351553,142.467359 91.2409938,141.681317 C91.6457143,140.895275 91.8480745,140.056606 91.8480745,139.161951 C91.8480745,138.476683 91.7463354,137.887711 91.5450932,137.389437 C91.3416149,136.891162 91.0352795,136.489183 90.6182609,136.1835 C90.2045963,135.875577 89.6914286,135.661711 89.0787578,135.537423 C88.6930435,135.478077 87.929441,135.370585 86.7767702,135.221662 C85.6229814,135.07162 84.6436025,134.909261 83.8330435,134.733465 C82.7541615,134.400908 81.9603727,134.013486 81.451677,133.568958 C80.9418634,133.12107 80.5293168,132.537697 80.2106832,131.813239 C79.8954037,131.088782 79.736646,130.304979 79.736646,129.46631 C79.736646,128.244697 80.0563975,127.091387 80.6925466,126.00862 C81.3331677,124.925852 82.2778882,124.086063 83.5278261,123.484775 C84.778882,122.884606 86.133913,122.583401 87.5985093,122.583401 C88.4795031,122.583401 89.4443478,122.699852 90.4874534,122.933873 C91.529441,123.166775 92.5021118,123.507169 93.4043478,123.956176 C93.2578882,124.608972 93.1583851,125.219218 93.0957764,125.782437 C93.0320497,126.347894 92.9839752,127.180965 92.9549068,128.279408 L91.9118012,128.279408 C91.8793789,126.68157 91.8324224,125.80931 91.7698137,125.665986 C91.5115528,125.29088 91.1571429,124.952725 90.7099379,124.653761 C89.64,124.050232 88.5219876,123.750148 87.3570186,123.750148 C85.8510559,123.750148 84.6469565,124.208113 83.7480745,125.125162 C82.8503106,126.039972 82.3986335,127.225754 82.3986335,128.683627 C82.3986335,129.564845 82.5585093,130.248993 82.8816149,130.729352 C83.2036025,131.21307 83.7804969,131.599373 84.6122981,131.88938 C85.1847205,132.086451 86.1160248,132.271204 87.4118012,132.44588 C88.7098137,132.619437 89.8781366,132.807549 90.9156522,133.00238 C91.890559,133.292387 92.611677,133.6395 93.0767702,134.037 C93.5463354,134.437859 93.9298137,134.961887 94.231677,135.610204 C94.5313043,136.260761 94.682236,137.021049 94.682236,137.89331 C94.682236,139.95919 93.8258385,141.759697 92.1130435,143.294831 C90.4002484,144.832204 88.1854658,145.600331 85.4664596,145.600331 C83.4104348,145.600331 81.5489441,145.194993 79.8763975,144.384317" id="Fill-18" fill="#1A1919"></path>
                    <path d="M105.48559,144.154775 L105.48559,145.147965 C103.278634,145.077423 101.827453,145.041592 101.133168,145.041592 L96.3335404,145.147965 L96.3335404,144.154775 C97.5499379,144.13238 98.2922981,144.077514 98.5639752,143.990176 C98.8311801,143.902838 99.0167702,143.779669 99.1218634,143.625148 C99.2426087,143.41688 99.3208696,142.914127 99.3532919,142.115768 C99.3655901,141.897423 99.3935404,140.427232 99.4293168,137.699599 L99.4293168,130.49869 C99.4293168,129.090085 99.4147826,127.710592 99.3834783,126.36357 C99.3532919,125.377099 99.2783851,124.794845 99.1587578,124.613451 C99.0402484,124.433176 98.8457143,124.29769 98.5818634,124.209232 C98.3168944,124.120775 97.5678261,124.065908 96.3335404,124.046873 L96.3335404,123.050324 C98.3113043,123.121986 99.8385093,123.158937 100.917391,123.158937 C101.953789,123.158937 103.476522,123.121986 105.48559,123.050324 L105.48559,124.046873 C104.25913,124.065908 103.510062,124.120775 103.248447,124.209232 C102.986832,124.29769 102.80236,124.419739 102.699503,124.57538 C102.573168,124.780289 102.496025,125.284162 102.466957,126.082521 C102.452422,126.290789 102.427826,127.763218 102.38646,130.49869 L102.38646,137.699599 C102.38646,139.109324 102.40323,140.482099 102.435652,141.821282 C102.466957,142.804394 102.540745,143.390007 102.662609,143.57812 C102.778882,143.765113 102.97118,143.902838 103.237267,143.990176 C103.501118,144.077514 104.251304,144.13238 105.48559,144.154775" id="Fill-19" fill="#1A1919"></path>
                    <path d="M114.124472,136.417521 L121.971801,136.417521 L118.097888,127.051077 L114.124472,136.417521 Z M106.873043,145.147965 L106.873043,144.089831 C107.694783,144.080873 108.204596,144.047282 108.406957,143.990176 C108.612671,143.93307 108.798261,143.824458 108.968199,143.662099 C109.138137,143.501979 109.385217,143.086563 109.708323,142.410254 C109.896149,142.02619 110.571429,140.569437 111.736398,138.037754 L115.632671,129.260282 C116.059752,128.295085 116.967578,126.146345 118.360621,122.816303 L119.35677,122.816303 L126.014534,138.426296 C127.095652,140.957979 127.812298,142.54462 128.166708,143.188458 C128.36236,143.553486 128.578137,143.790866 128.812919,143.903958 C129.047702,144.019289 129.574286,144.080873 130.393789,144.089831 L130.393789,145.147965 C128.772671,145.04719 127.641242,144.994563 126.995031,144.994563 L121.979627,145.147965 L121.979627,144.089831 C123.14236,144.070796 123.846708,144.034965 124.094907,143.981218 C124.345342,143.928592 124.513043,143.85581 124.601366,143.756155 C124.690807,143.65762 124.73441,143.53669 124.73441,143.390007 C124.73441,143.161585 124.662857,142.865979 124.51528,142.50319 L122.604596,137.741028 L113.588944,137.741028 L111.896273,141.740662 C111.596646,142.457282 111.444596,142.98131 111.444596,143.313866 C111.444596,143.45943 111.485963,143.57812 111.568696,143.672176 C111.683851,143.806542 111.862733,143.899479 112.10087,143.950986 C112.485466,144.034965 113.158509,144.080873 114.122236,144.089831 L114.122236,145.147965 C112.368075,145.055028 111.055528,145.008 110.179006,145.008 C109.172795,145.008 108.068199,145.055028 106.873043,145.147965 L106.873043,145.147965 Z" id="Fill-20" fill="#1A1919"></path>
                    <path d="M132.029441,145.147965 L132.029441,144.154775 C133.127329,144.142458 133.843975,144.060718 134.191677,143.903958 C134.335901,143.843493 134.440994,143.744958 134.503602,143.608352 C134.608696,143.403444 134.680248,142.858141 134.722733,141.978042 C134.773043,140.613106 134.800994,139.432923 134.800994,138.439732 L134.800994,125.783556 C134.800994,125.443162 134.779752,125.220338 134.738385,125.118444 C134.654534,124.931451 134.467826,124.708627 134.177143,124.448852 C133.991553,124.285373 133.775776,124.179 133.530932,124.131972 C133.286087,124.086063 132.746087,124.055831 131.904224,124.046873 L131.904224,123.050324 C133.698634,123.090634 134.827826,123.113028 135.287329,123.113028 C136.069938,123.113028 136.850311,123.090634 137.625093,123.050324 C138.493789,124.198035 139.135528,125.046782 139.545839,125.594324 L142.725466,129.553648 L147.366335,135.202627 C148.852174,137.003134 150.045093,138.420697 150.947329,139.455317 C151.519752,140.138345 152.000497,140.67693 152.390683,141.069951 L152.390683,129.736162 C152.390683,128.721697 152.354907,127.534796 152.283354,126.169859 C152.24087,125.312155 152.174907,124.779169 152.079876,124.572021 C152.008323,124.437655 151.89764,124.340239 151.752298,124.278655 C151.410186,124.133092 150.69913,124.055831 149.621366,124.046873 L149.621366,123.050324 C150.84559,123.090634 152.085466,123.113028 153.342112,123.113028 C154.524969,123.113028 155.598261,123.090634 156.56087,123.050324 L156.56087,124.046873 C155.478634,124.055831 154.761988,124.133092 154.41764,124.278655 C154.272298,124.340239 154.168323,124.444373 154.104596,124.589937 C153.999503,124.788127 153.925714,125.33007 153.885466,126.221366 C153.832919,127.589662 153.809441,128.766486 153.809441,129.749599 L153.809441,137.224838 C153.809441,138.737577 153.832919,141.560387 153.885466,145.695507 L152.283354,145.227465 L151.906584,145.147965 C151.847329,145.12893 151.788075,145.096458 151.736646,145.055028 C151.665093,145.003521 151.468323,144.794134 151.146335,144.426866 C150.28323,143.440394 149.652671,142.695782 149.245714,142.193028 L147.238882,139.628873 L136.201863,126.304225 L136.201863,138.365831 C136.201863,139.393732 136.23764,140.605268 136.309193,141.999317 C136.351677,142.868218 136.418758,143.404563 136.512671,143.602754 C136.583106,143.749437 136.693789,143.85469 136.840248,143.918514 C137.18236,144.065197 137.892298,144.142458 138.972298,144.154775 L138.972298,145.147965 C138.06,145.077423 137.052671,145.041592 135.953665,145.041592 C134.747329,145.041592 133.440373,145.077423 132.029441,145.147965" id="Fill-21" fill="#1A1919"></path>
                    <path d="M163.508199,136.417521 L171.353292,136.417521 L167.476025,127.051077 L163.508199,136.417521 Z M156.253416,145.147965 L156.253416,144.089831 C157.075155,144.080873 157.587205,144.047282 157.788447,143.990176 C157.990807,143.93307 158.18087,143.824458 158.350807,143.662099 C158.521863,143.501979 158.768944,143.086563 159.089814,142.410254 C159.279876,142.02619 159.954037,140.569437 161.11677,138.037754 L165.01528,129.260282 C165.44236,128.295085 166.350186,126.146345 167.74323,122.816303 L168.738261,122.816303 L175.397143,138.426296 C176.476025,140.957979 177.194907,142.54462 177.548199,143.188458 C177.744969,143.553486 177.961863,143.790866 178.193292,143.903958 C178.428075,144.019289 178.956894,144.080873 179.776398,144.089831 L179.776398,145.147965 C178.15528,145.04719 177.021615,144.994563 176.376522,144.994563 L171.361118,145.147965 L171.361118,144.089831 C172.523851,144.070796 173.227081,144.034965 173.476398,143.981218 C173.724596,143.928592 173.894534,143.85581 173.981739,143.756155 C174.07118,143.65762 174.115901,143.53669 174.115901,143.390007 C174.115901,143.161585 174.04323,142.865979 173.897888,142.50319 L171.986087,137.741028 L162.969317,137.741028 L161.278882,141.740662 C160.979255,142.457282 160.826087,142.98131 160.826087,143.313866 C160.826087,143.45943 160.868571,143.57812 160.95354,143.672176 C161.065342,143.806542 161.24087,143.899479 161.48236,143.950986 C161.868075,144.034965 162.541118,144.080873 163.504845,144.089831 L163.504845,145.147965 C161.750683,145.055028 160.438137,145.008 159.561615,145.008 C158.555404,145.008 157.450807,145.055028 156.253416,145.147965 L156.253416,145.147965 Z" id="Fill-22" fill="#1A1919"></path>
                    <path d="M15.3827329,107.863585 L15.3827329,107.542225 L18.9693168,107.542225 L18.9693168,107.863585 C17.6981366,107.863585 17.4991304,108.108803 17.4991304,109.641697 L17.4991304,113.319972 C17.4991304,115.725127 15.843354,116.997127 13.8040994,116.997127 C11.7804969,116.997127 10.1236025,115.725127 10.1236025,113.319972 L10.1236025,109.641697 C10.1236025,108.108803 9.94024845,107.863585 8.66906832,107.863585 L8.66906832,107.542225 L12.8079503,107.542225 L12.8079503,107.863585 C11.5356522,107.863585 11.3500621,108.108803 11.3500621,109.641697 L11.3500621,113.396113 C11.3500621,115.389211 12.5004969,116.30738 14.0344099,116.30738 C15.6432298,116.30738 16.8551553,115.389211 16.8551553,113.396113 L16.8551553,109.641697 C16.8551553,108.108803 16.6550311,107.863585 15.3827329,107.863585" id="Fill-23" fill="#1A1919"></path>
                    <path d="M33.9484472,109.641697 C33.9484472,108.108803 33.7639752,107.863585 32.492795,107.863585 L32.492795,107.542225 L35.9854658,107.542225 L35.9854658,107.863585 C34.7131677,107.863585 34.5152795,108.108803 34.5152795,109.641697 L34.5152795,116.997127 L34.1619876,116.997127 L27.9245963,109.288986 L27.9245963,114.622204 C27.9245963,116.155099 28.1236025,116.413754 29.3970186,116.413754 L29.3970186,116.736232 L25.9009938,116.736232 L25.9009938,116.413754 C27.1732919,116.413754 27.356646,116.155099 27.356646,114.622204 L27.356646,109.641697 C27.356646,108.108803 27.1732919,107.863585 25.9009938,107.863585 L25.9009938,107.542225 L28.0609938,107.542225 L33.9484472,114.83607 L33.9484472,109.641697" id="Fill-24" fill="#1A1919"></path>
                    <path d="M43.293913,116.736232 L43.293913,116.413754 C44.5662112,116.413754 44.7506832,116.155099 44.7506832,114.622204 L44.7506832,109.641697 C44.7506832,108.108803 44.5662112,107.863585 43.293913,107.863585 L43.293913,107.542225 L47.433913,107.542225 L47.433913,107.863585 C46.1604969,107.863585 45.9771429,108.108803 45.9771429,109.641697 L45.9771429,114.622204 C45.9771429,116.155099 46.1604969,116.413754 47.433913,116.413754 L47.433913,116.736232 L43.293913,116.736232" id="Fill-25" fill="#1A1919"></path>
                    <path d="M62.5002484,109.197169 L59.126087,116.997127 L58.9259627,116.997127 L55.5395031,109.197169 C55.0621118,108.108803 54.987205,107.863585 53.7137888,107.863585 L53.7137888,107.542225 L57.96,107.542225 L57.96,107.863585 C56.6899379,107.863585 56.3981366,108.187183 56.7659627,109.028092 L59.3709317,114.990592 L61.9468323,109.028092 C62.3135404,108.20062 62.0228571,107.863585 60.749441,107.863585 L60.749441,107.542225 L64.3214907,107.542225 L64.3214907,107.863585 C63.0503106,107.863585 62.9720497,108.108803 62.5002484,109.197169" id="Fill-26" fill="#1A1919"></path>
                    <path d="M70.6192547,116.413754 C71.8904348,116.413754 72.0760248,116.155099 72.0760248,114.622204 L72.0760248,109.641697 C72.0760248,108.108803 71.8904348,107.863585 70.6192547,107.863585 L70.6192547,107.542225 L77.6068323,107.542225 L77.7454658,109.564437 L77.4234783,109.564437 L77.3463354,109.258754 C77.133913,108.462634 76.9796273,108.108803 75.5709317,108.108803 L73.3002484,108.108803 L73.3002484,111.588887 L74.067205,111.588887 C75.598882,111.588887 75.8448447,111.404134 75.8448447,110.116458 L76.1668323,110.116458 L76.1668323,113.625655 L75.8448447,113.625655 C75.8448447,112.339099 75.598882,112.154345 74.067205,112.154345 L73.3002484,112.154345 L73.3002484,114.392662 C73.3002484,115.924437 73.4869565,116.168535 74.7581366,116.168535 L76.0751553,116.168535 C77.4849689,116.168535 77.6549068,115.816944 77.852795,115.005148 L77.9299379,114.698345 L78.2519255,114.698345 L78.1289441,116.736232 L70.6192547,116.736232 L70.6192547,116.413754" id="Fill-27" fill="#1A1919"></path>
                    <path d="M91.8134161,110.132134 C91.8134161,109.028092 91.2018634,108.108803 89.8680745,108.108803 L88.5186335,108.108803 L88.5186335,112.154345 L89.8680745,112.154345 C91.2018634,112.154345 91.8134161,111.250732 91.8134161,110.132134 M91.9531677,114.467683 C92.8565217,115.541493 93.8850932,116.30738 94.8029814,116.413754 L94.8029814,116.736232 L92.2740373,116.736232 L89.2408696,112.707486 L88.5186335,112.707486 L88.5186335,114.622204 C88.5186335,116.155099 88.7042236,116.413754 89.9742857,116.413754 L89.9742857,116.736232 L85.8365217,116.736232 L85.8365217,116.413754 C87.1088199,116.413754 87.2932919,116.155099 87.2932919,114.622204 L87.2932919,109.641697 C87.2932919,108.108803 87.1088199,107.863585 85.8365217,107.863585 L85.8365217,107.542225 L89.8826087,107.542225 C92.0124224,107.542225 93.1785093,108.706732 93.1785093,110.132134 C93.1785093,111.464599 92.1823602,112.522732 90.450559,112.707486 L91.9531677,114.467683" id="Fill-28" fill="#1A1919"></path>
                    <path d="M102.235528,116.997127 L101.929193,116.997127 L101.929193,113.625655 L102.235528,113.625655 C102.235528,113.625655 102.264596,116.384641 105.070807,116.384641 C106.159752,116.384641 106.988199,115.679218 106.988199,114.698345 C106.988199,113.992923 106.282733,113.396113 105.225093,112.844092 L103.752671,112.09388 C102.863851,111.633676 102.052174,110.730063 102.052174,109.564437 C102.052174,108.293556 103.108696,107.282451 104.595652,107.282451 C105.500124,107.282451 106.005466,107.573577 106.466087,107.908373 C106.649441,107.757211 106.833913,107.526549 106.909938,107.20519 L107.217391,107.20519 L107.217391,110.575542 L106.895404,110.575542 C106.788075,109.35057 106.328571,107.893817 104.548696,107.893817 C103.692298,107.893817 103.062857,108.492866 103.062857,109.258754 C103.062857,110.054873 103.598385,110.468049 104.91764,111.157796 L106.388944,111.909127 C107.567329,112.507056 107.98323,113.396113 107.98323,114.24038 C107.98323,115.90988 106.649441,116.997127 105.070807,116.997127 C103.905839,116.997127 103.171304,116.384641 102.680497,116.277148 C102.496025,116.430549 102.312671,116.658972 102.235528,116.997127" id="Fill-29" fill="#1A1919"></path>
                    <path d="M115.53764,116.736232 L115.53764,116.413754 C116.80882,116.413754 116.993292,116.155099 116.993292,114.622204 L116.993292,109.641697 C116.993292,108.108803 116.80882,107.863585 115.53764,107.863585 L115.53764,107.542225 L119.676522,107.542225 L119.676522,107.863585 C118.404224,107.863585 118.219752,108.108803 118.219752,109.641697 L118.219752,114.622204 C118.219752,116.155099 118.404224,116.413754 119.676522,116.413754 L119.676522,116.736232 L115.53764,116.736232" id="Fill-30" fill="#1A1919"></path>
                    <path d="M136.24323,109.611465 L135.921242,109.611465 L135.844099,109.304662 C135.631677,108.492866 135.476273,108.140155 134.06646,108.140155 L132.058509,108.140155 L132.058509,114.622204 C132.058509,116.155099 132.257516,116.413754 133.530932,116.413754 L133.530932,116.736232 L129.37528,116.736232 L129.37528,116.413754 C130.649814,116.413754 130.846584,116.155099 130.846584,114.622204 L130.846584,108.140155 L128.839752,108.140155 C127.429938,108.140155 127.27677,108.492866 127.060994,109.304662 L126.983851,109.611465 L126.661863,109.611465 L126.800497,107.542225 L136.105714,107.542225 L136.24323,109.611465" id="Fill-31" fill="#1A1919"></path>
                    <path d="M148.185839,114.622204 C148.185839,116.155099 148.369193,116.413754 149.640373,116.413754 L149.640373,116.736232 L145.502609,116.736232 L145.502609,116.413754 C146.776025,116.413754 146.959379,116.155099 146.959379,114.622204 L146.959379,113.135218 L144.413665,109.197169 C143.754037,108.187183 143.28,107.863585 142.191056,107.863585 L142.191056,107.542225 L146.55913,107.542225 L146.55913,107.863585 C145.272298,107.863585 145.272298,108.323789 145.730683,109.028092 L147.940994,112.399563 L150.177019,109.028092 C150.712547,108.20062 150.638758,107.863585 149.349689,107.863585 L149.349689,107.542225 L152.935155,107.542225 L152.935155,107.863585 C151.648323,107.863585 151.327453,108.293556 150.712547,109.197169 L148.185839,113.028845 L148.185839,114.622204" id="Fill-32" fill="#1A1919"></path>
                    <path d="M164.460745,110.251944 C163.832422,110.165725 163.312547,110.834197 163.034161,111.710937 C162.754658,112.584317 162.810559,113.342366 163.437764,113.429704 C164.066087,113.514803 164.578137,112.836254 164.856522,111.960634 C165.136025,111.082775 165.079006,110.334803 164.460745,110.251944 M163.340497,113.753303 C162.460621,113.633493 162.024596,112.669415 162.352174,111.61688 C162.69764,110.564345 163.680373,109.807415 164.55913,109.929465 C165.426708,110.049275 165.863851,110.997676 165.525093,112.052451 C165.190807,113.104986 164.206957,113.873113 163.340497,113.753303" id="Fill-33" fill="#1A1919"></path>
                    <path d="M167.681739,110.90362 L168.073043,109.884676 C168.547081,108.669782 169.476149,107.947563 170.102236,107.916211 C170.729441,107.887099 170.912795,108.322669 170.796522,108.631711 C170.735031,108.788472 170.60087,108.893725 170.42646,108.901563 C169.992671,108.923958 170.514783,108.190542 169.946832,108.216296 C169.625963,108.233092 169.090435,108.703373 168.638758,109.856683 L168.246335,110.878986 L168.096522,111.238415 L166.476522,115.414965 C166.002484,116.632099 165.393168,117.083345 164.798385,117.111338 C164.19913,117.14157 164.039255,116.725035 164.163354,116.422711 C164.231553,116.259232 164.357888,116.130465 164.561366,116.122627 C164.995155,116.102472 164.416025,116.837007 164.963851,116.811254 C165.264596,116.798937 165.522857,116.430549 165.910807,115.441838 L167.530807,111.267528 L167.681739,110.90362" id="Fill-34" fill="#1A1919"></path>
                    <polyline id="Fill-35" fill="#1A1919" points="168.569441 111.839704 166.524596 111.839704 166.700124 111.478035 168.715901 111.478035 168.569441 111.839704"></polyline>
                    <path d="M15.4375155,158.740225 C16.1932919,158.740225 16.3408696,158.531958 16.4090683,157.314824 L16.6203727,153.343183 C16.6885714,152.12381 16.5667081,151.926739 15.8075776,151.926739 L15.8131677,151.671444 L18.3823602,151.671444 L18.3745342,151.926739 C17.6053416,151.926739 17.4700621,152.12381 17.4130435,153.343183 L17.2062112,157.128951 C17.1357764,158.350563 17.2464596,158.544275 18.002236,158.544275 L19.0900621,158.544275 C19.9341615,158.544275 20.0448447,158.266585 20.1980124,157.618268 L20.253913,157.373049 L20.4484472,157.373049 L20.2829814,158.99888 L15.4207453,158.99888 L15.4375155,158.740225" id="Fill-36" fill="#1A1919"></path>
                    <path d="M34.648323,153.123718 L33.5616149,156.006993 L35.4320497,156.006993 L34.648323,153.123718 Z M32.8684472,157.814218 C32.6202484,158.48493 32.7745342,158.740225 33.5448447,158.740225 L33.5381366,158.99888 L31.2775155,158.99888 L31.2965217,158.740225 C31.9561491,158.740225 32.1070807,158.570028 32.4480745,157.679852 L34.7869565,151.463176 L35.0183851,151.463176 L36.7121739,157.679852 C36.9525466,158.544275 37.0498137,158.740225 37.7340373,158.740225 L37.7284472,158.99888 L35.1257143,158.99888 L35.1436025,158.740225 C35.9027329,158.740225 36.1006211,158.472613 35.908323,157.814218 L35.547205,156.458239 L33.386087,156.458239 L32.8684472,157.814218 L32.8684472,157.814218 Z" id="Fill-37" fill="#1A1919"></path>
                    <path d="M52.1262112,154.893993 L52.5790062,154.893993 C53.4924224,154.893993 53.6601242,154.74731 53.7037267,153.723887 L53.8993789,153.723887 L53.7562733,156.519824 L53.5617391,156.519824 C53.6176398,155.493042 53.463354,155.348599 52.5488199,155.348599 L52.0971429,155.348599 L51.9931677,157.314824 C51.9372671,158.531958 52.0367702,158.740225 52.8059627,158.740225 L52.7891925,158.99888 L50.223354,158.99888 L50.2412422,158.740225 C51.0003727,158.740225 51.1434783,158.531958 51.2161491,157.314824 L51.4207453,153.343183 C51.4956522,152.12381 51.3737888,151.926739 50.6135404,151.926739 L50.6213665,151.671444 L55.0185093,151.671444 L55.0207453,153.283838 L54.8228571,153.283838 L54.7937888,153.039739 C54.7043478,152.404859 54.6216149,152.12381 53.7786335,152.12381 L52.2760248,152.12381 L52.1262112,154.893993" id="Fill-38" fill="#1A1919"></path>
                    <path d="M69.2217391,153.123718 L68.131677,156.006993 L70.0032298,156.006993 L69.2217391,153.123718 Z M67.4385093,157.814218 C67.1925466,158.48493 67.3468323,158.740225 68.1149068,158.740225 L68.1070807,158.99888 L65.8509317,158.99888 L65.8688199,158.740225 C66.5273292,158.740225 66.6760248,158.570028 67.0192547,157.679852 L69.3592547,151.463176 L69.5895652,151.463176 L71.284472,157.679852 C71.5214907,158.544275 71.6209938,158.740225 72.3074534,158.740225 L72.2985093,158.99888 L69.6980124,158.99888 L69.7159006,158.740225 C70.471677,158.740225 70.6718012,158.472613 70.4828571,157.814218 L70.1183851,156.458239 L67.9561491,156.458239 L67.4385093,157.814218 L67.4385093,157.814218 Z" id="Fill-39" fill="#1A1919"></path>
                    <path d="M86.7745342,157.314824 C86.7018634,158.531958 86.8147826,158.740225 87.5750311,158.740225 L87.569441,158.99888 L84.9790062,158.99888 L84.9913043,158.740225 C85.7537888,158.740225 85.8957764,158.531958 85.9684472,157.314824 L86.0042236,156.702338 C86.1875776,153.222254 85.3356522,151.977127 84.6536646,151.977127 C84.4568944,151.977127 84.1986335,152.147324 84.0868323,152.258176 L84.0544099,151.977127 C84.3104348,151.671444 84.6737888,151.549394 84.9409938,151.549394 C85.8711801,151.549394 86.4346584,152.454127 86.6772671,155.150408 C87.1792547,153.052056 87.7885714,151.561711 88.8037267,151.561711 C89.3303106,151.561711 89.6131677,151.977127 89.5896894,152.292887 C89.5751553,152.476521 89.4756522,152.637761 89.2654658,152.637761 C88.8137888,152.637761 89.0340373,152.048789 88.5823602,152.048789 C87.84,152.048789 86.9031056,154.98357 86.8147826,156.65531 L86.7745342,157.314824" id="Fill-40" fill="#1A1919"></path>
                    <path d="M102.171801,158.740225 C102.927578,158.740225 103.072919,158.531958 103.143354,157.314824 L103.35354,153.343183 C103.423975,152.12381 103.299876,151.926739 102.544099,151.926739 L102.547453,151.671444 L106.799255,151.671444 L106.790311,153.283838 L106.59354,153.283838 L106.564472,153.039739 C106.476149,152.404859 106.390062,152.12381 105.550435,152.12381 L104.205466,152.12381 L104.059006,154.893993 L104.507329,154.893993 C105.425217,154.893993 105.590683,154.74731 105.635404,153.723887 L105.829938,153.723887 L105.685714,156.519824 L105.488944,156.519824 C105.545963,155.493042 105.396149,155.348599 104.478261,155.348599 L104.026584,155.348599 L103.938261,157.128951 C103.87118,158.350563 103.978509,158.544275 104.73764,158.544275 L105.520248,158.544275 C106.362112,158.544275 106.472795,158.266585 106.624845,157.618268 L106.680745,157.373049 L106.878634,157.373049 L106.710932,158.99888 L102.155031,158.99888 L102.171801,158.740225" id="Fill-41" fill="#1A1919"></path>
                    <path d="M153.301863,158.740225 C154.060994,158.740225 154.207453,158.531958 154.27677,157.314824 L154.48472,153.343183 C154.555155,152.12381 154.433292,151.926739 153.676398,151.926739 L153.681988,151.671444 L157.932671,151.671444 L157.922609,153.283838 L157.726957,153.283838 L157.697888,153.039739 C157.606211,152.404859 157.524596,152.12381 156.681615,152.12381 L155.336646,152.12381 L155.190186,154.893993 L155.641863,154.893993 C156.558634,154.893993 156.720745,154.74731 156.76882,153.723887 L156.964472,153.723887 L156.818012,156.519824 L156.62236,156.519824 C156.679379,155.493042 156.527329,155.348599 155.612795,155.348599 L155.161118,155.348599 L155.071677,157.128951 C155.003478,158.350563 155.113043,158.544275 155.869938,158.544275 L156.652547,158.544275 C157.492174,158.544275 157.603975,158.266585 157.758261,157.618268 L157.814161,157.373049 L158.008696,157.373049 L157.839876,158.99888 L153.286211,158.99888 L153.301863,158.740225" id="Fill-42" fill="#1A1919"></path>
                    <path d="M121.764969,152.073423 L121.48323,157.253239 C121.411677,158.472613 121.526832,158.678641 122.282609,158.678641 L122.278137,158.937296 L119.712298,158.937296 L119.719006,158.678641 C120.488199,158.678641 120.634658,158.472613 120.703975,157.253239 L120.980124,152.073423 L120.26236,152.073423 C119.151056,152.073423 119.001242,152.341035 118.801118,153.002789 L118.531677,153.002789 L118.849193,151.609859 L122.548696,151.609859" id="Fill-43" fill="#1A1919"></path>
                    <path d="M120.144969,151.609859 L123.846708,151.609859 L124.164224,153.002789 L123.892547,153.002789 C123.695776,152.341035 123.543727,152.073423 122.432422,152.073423 L121.712422,152.073423" id="Fill-44" fill="#1A1919"></path>
                    <path d="M139.050559,152.136127 L138.771056,157.314824 C138.700621,158.531958 138.811304,158.740225 139.570435,158.740225 L139.562609,158.99888 L136.999006,158.99888 L137.003478,158.740225 C137.773789,158.740225 137.920248,158.531958 137.988447,157.314824 L138.269068,152.136127 L137.549068,152.136127 C136.437764,152.136127 136.289068,152.40262 136.088944,153.063254 L135.819503,153.063254 L136.133665,151.671444 L139.836522,151.671444" id="Fill-45" fill="#1A1919"></path>
                    <path d="M137.430559,151.671444 L141.13118,151.671444 L141.450932,153.063254 L141.180373,153.063254 C140.980248,152.40262 140.830435,152.136127 139.71913,152.136127 L139.000248,152.136127" id="Fill-46" fill="#1A1919"></path>
                </g>
            </g>
        </g>
    </g>
</svg>