<svg height="57" viewBox="0 0 227 57" width="227" xmlns="http://www.w3.org/2000/svg" xmlns:xlink="http://www.w3.org/1999/xlink"><mask id="a" fill="#fff"><path d="m.02533333.06544444h190.57802267v56.93455556h-190.57802267z" fill="#fff" fill-rule="evenodd"/></mask><g fill="none" fill-rule="evenodd"><g fill="#fffffe"><path d="m213.763089 47.0980444h-.3572v-.3719777h.3572c.089089 0 .166778.0861333.166778.1891555 0 .1021778-.077689.1828222-.166778.1828222zm.4522-.1828222c0-.2803555-.202667-.5049778-.4522-.5049778h-.643467v1.7028223h.286267v-.6937111h.201822l.291333.6937111h.316245l-.302311-.7211556c.177333-.0696667.302311-.2584.302311-.4766889z"/><path d="m213.665978 48.4314222c-.578867 0-1.045-.5235555-1.045-1.1729333 0-.6489556.466133-1.1695556 1.045-1.1695556.580133 0 1.048378.5206 1.048378 1.1695556 0 .6493778-.468245 1.1729333-1.048378 1.1729333zm0-2.6616889c-.734245 0-1.330845.6679556-1.330845 1.4887556 0 .8262889.5966 1.4946667 1.330845 1.4946667.734666 0 1.333378-.6683778 1.333378-1.4946667 0-.8208-.598712-1.4887556-1.333378-1.4887556z"/><path d="m57.2617778 40.3990667v-.7676c.6046222-.2862667.9926444-.5134223 1.159-.6797778.0966889-.0882445.1650889-.2026667.2039333-.3407333.0869778-.2748667.1465111-.8680889.1760667-1.7716445.0498222-1.3528.0747333-2.1571333.0747333-2.4125778v-7.9576222c0-1.3392889-.0152-2.6502889-.0460222-3.9313111-.0287111-.9386-.1009111-1.4921333-.2132222-1.6656667-.1135778-.1714222-.2968223-.3006222-.5476223-.3833777-.2520666-.0848667-.9647777-.1359556-2.1389777-.1558v-.9466223c2.4066666.0679778 3.8966889.1026 4.4692222.1026.6324889 0 2.0477778-.0346222 4.2462889-.1026v.9466223c-1.1725111.0198444-1.8852222.0709333-2.1377111.1558-.2508.0827555-.4264445.1997111-.5235556.3479111-.1178.1950666-.1942222.6751333-.2237778 1.4330222-.0118222.1976-.0367333 1.5972667-.0743111 4.1994222v9.9374222c0 1.0369778.0261778 1.8797334.0743111 2.5286889 1.1260667.0696667 2.2407334.1059778 3.3444223.1059778 2.7837111 0 4.7314222-.1777556 5.8473555-.5328444.1275111-.2997778.2415111-.6379778.3398889-1.0230445l.5915333-2.4539555h.9901111c-.2149111 1.4697555-.4272888 3.1941111-.6350222 5.1760222-.4049111.0810666-.7236889.1308889-.9618222.1477778-.5134222.0299777-1.3021333.0439111-2.3665556.0439111l-8.7619555-.0996445c-.9466222 0-1.9088667.0333556-2.8863111.0996445"/><path d="m77.7002889 28.7980889c0 .9377555.0933111 1.8907111.2803555 2.8559111.1870445.9656222.4256 1.8024667.7114445 2.5016667.4728889 1.1860222 1.0906 2.1782444 1.8560889 2.983.7650666.8039111 1.6179555 1.3937555 2.5607778 1.7746.9407111.38 1.9852888.5708444 3.1286666.5708444 1.5905111 0 2.9711778-.3880222 4.1449556-1.1619555 1.1746222-.7735112 2.0490444-1.8658 2.6274889-3.2684223.5763333-1.4089555.8651333-3.0281777.8651333-4.8635777 0-1.5694-.2077333-3.0138223-.6210889-4.3366445-.2562889-.8094-.5974444-1.5415333-1.0209333-2.1989333-.4247556-.6552889-.931-1.2274-1.5174667-1.7159111-.5868889-.4880889-1.349-.8993334-2.2876-1.235-.9356444-.3352445-1.9477111-.5037111-3.0336667-.5037111-1.5677111 0-2.9445777.3512888-4.1280666 1.0513333-1.1839111.7000444-2.0739556 1.7133778-2.6714 3.0412667-.5961778 1.3266222-.8946889 2.8284666-.8946889 4.5055333zm-3.0788445 1.2286667c0-1.5609556.2343334-2.9998889.703-4.3210223.4682445-1.3215555 1.2451334-2.5109555 2.3302445-3.5673555 1.0855333-1.0555556 2.3142-1.8518667 3.6864222-2.3902 1.3709556-.5379111 2.9390889-.8056 4.7052445-.8056 1.6272444 0 3.1079777.2275778 4.4409333.6865333 1.3304222.4585333 2.4227111 1.0673778 3.2768667 1.8214667.8541555.7540889 1.5263333 1.5803778 2.0194888 2.4784444.3745112.6709111.6742889 1.4613111.8972223 2.3682445.2204.9094666.3318666 1.8801555.3318666 2.9167111 0 3.3216222-1.1159333 6.0888666-3.3511777 8.3013111-2.2348223 2.2103333-5.0544223 3.3140222-8.4579556 3.3140222-1.5504 0-2.9944-.2529111-4.3366444-.7545111-1.3418223-.5020222-2.4776-1.2506222-3.4035334-2.2432667-.9284666-.9896889-1.6327333-2.1930222-2.1170222-3.61-.4834444-1.4140222-.7249556-2.8115777-.7249556-4.1947777z"/><path d="m97.5603556 20.3329556v-.9466223c1.6090888.0679778 3.1037554.1026 4.4844224.1026 1.398822 0 2.790466-.0346222 4.174511-.1026v.9466223c-1.156467.0198444-1.866222.0709333-2.121245.1558-.255444.0827555-.427288.1997111-.515955.3479111-.127511.1950666-.204778.6751333-.232645 1.4330222-.013933.1976-.038844 1.5972667-.077688 4.1994222v5.4732667c0 2.1182889.138911 3.5158444.4104 4.1926666.271066.6730223.701733 1.2337334 1.292 1.6741112.454733.3386222 1.067377.6046222 1.835822.8098222.770978.1997111 1.629778.3027333 2.575555.3027333 1.106223 0 2.087889-.1363778 2.947111-.4078667.854156-.2719111 1.500156-.5987111 1.929556-.9926444.427289-.3884444.749444-.8233333.959289-1.3059333.213222-.4855556.366911-1.1450667.460644-1.9878223.094578-.8431777.138489-1.9109777.138489-3.2025555v-4.5557778c0-1.3392889-.021955-2.6502889-.0722-3.9313111-.019-.9386-.085711-1.4921333-.198866-1.6656667-.111889-.1714222-.294712-.3006222-.551845-.3833777-.255867-.0848667-.962244-.1359556-2.121244-.1558v-.9466223c1.625133.0679778 2.814111.1026 3.560177.1026.681889 0 1.906756-.0346222 3.676712-.1026v.9466223c-1.165334.0198444-1.875089.0709333-2.126734.1558-.249955.0827555-.423911.1997111-.521444.3479111-.119067.1967555-.190845.6751333-.222089 1.4330222-.008022.1988667-.0304 1.5972667-.058267 4.1994222v4.9556222c0 2.4362223-.171844 4.1360889-.510044 5.1042445-.341156.9643555-.964778 1.8189333-1.874245 2.5552889-.679355.5552222-1.555889.9816666-2.6258 1.2869333-1.067377.3052667-2.2572.4581111-3.557644.4581111-1.519156 0-2.836489-.1807111-3.953267-.5387555-1.114666-.3572-1.961644-.8338889-2.544311-1.4224667-.582244-.5818222-.982511-1.1805333-1.199533-1.7965556-.276556-.8064444-.413778-2.1626222-.413778-4.0638889v-6.5385333c0-1.3392889-.015622-2.6502889-.044756-3.9313111-.029133-.9386-.100911-1.4921333-.214488-1.6656667-.114-.1714222-.2951338-.3006222-.5480449-.3833777-.2508-.0848667-.9630889-.1359556-2.1385555-.1558"/><path d="m130.088778 39.4537111v.9453556c-2.095489-.0662889-3.477-.0996445-4.136089-.0996445l-4.564222.0996445v-.9453556c1.159-.0194222 1.863266-.0722 2.118289-.1553778.255022-.0827555.432355-.1997111.532-.3466444.116955-.1967556.191266-.6764.222088-1.4364.010978-.2052.036312-1.6052889.071778-4.1977333v-6.8484445c0-1.3392889-.013511-2.6502889-.044333-3.9313111-.027445-.9386-.099222-1.4921333-.213645-1.6656667-.113155-.1714222-.2964-.3006222-.545933-.3833777-.255022-.0848667-.967733-.1359556-2.140244-.1558v-.9466223c1.879311.0679778 3.3326.1026 4.3586.1026.986733 0 2.434111-.0346222 4.341711-.1026v.9466223c-1.167022.0198444-1.874245.0709333-2.123778.1558-.252067.0827555-.427289.1997111-.5244.3479111-.118644.1950666-.190844.6751333-.221244 1.4330222-.013934.1988667-.035889 1.5972667-.074734 4.1994222v6.8484445c0 1.3397111.016467 2.6448.043911 3.9182222.030823.9343778.100489 1.4938222.2166 1.6715778.111045.1769111.293867.3082222.546356.3909777.252067.0831778.964778.1359556 2.137289.1553778"/><path d="m131.863378 39.6724222c.160444-.9478889.255444-2.4784444.282889-4.5996889h.992644c.049822 1.4389334.130467 2.2935111.243622 2.5540223.114423.2600888.388867.5400222.822067.8368444.437422.2942889 1.019667.5581778 1.751378.7904.732133.2301111 1.435978.3496 2.118289.3496.998555 0 1.916466-.2301111 2.756266-.6903333.839378-.4602223 1.452445-1.0656889 1.834978-1.8079556.388867-.7490222.579711-1.5474444.579711-2.3986444 0-.6510667-.097111-1.2113556-.287955-1.6855111-.191689-.4741556-.485556-.8571112-.879489-1.1450667-.393934-.2942889-.8816-.4990667-1.463845-.6160222-.366066-.0548889-1.094822-.1579111-2.190489-.2993556-1.095244-.1439778-2.026244-.2993555-2.797222-.4657111-1.028955-.3162444-1.783044-.6823111-2.265644-1.1066444-.482178-.4234889-.876111-.9812445-1.175889-1.6715778-.301889-.6878-.453889-1.4321778-.453889-2.2293334 0-1.1628.304844-2.2584666.908622-3.2882666.610534-1.0302222 1.509022-1.8286445 2.695045-2.4007556 1.192777-.57 2.479289-.8558444 3.870933-.8558444.837267 0 1.753067.1110444 2.744867.3331333.992644.2229333 1.919.5446667 2.775689.9715333-.139334.6215112-.2356 1.2008-.297245 1.7370223-.057422.5379111-.101755 1.3295777-.132155 2.3745777h-.993067c-.027445-1.5208444-.0722-2.3479777-.133-2.4864666-.243622-.3550889-.582245-.6768222-1.006578-.9609778-1.017133-.5738-2.082822-.8592222-3.186089-.8592222-1.433022 0-2.577666.4348889-3.432244 1.3055111-.854156.8706222-1.281022 1.9988-1.281022 3.3853778 0 .8389555.150311 1.4879111.457688 1.9456.304845.4598.854156.8262889 1.643712 1.1032666.544244.1849334 1.430488.3626889 2.661688.5294667 1.237112.1663556 2.345867.3436889 3.333445.5269333.925933.2769778 1.610778.6067334 2.054111.9875778.446711.3791556.809822.8782222 1.095667 1.4938222.285422.6185556.426866 1.3392889.426866 2.1706445 0 1.9633333-.812355 3.6771333-2.440444 5.1380222-1.627245 1.4613111-3.732022 2.1909111-6.318978 2.1909111-1.954044 0-3.723155-.3854889-5.314933-1.1568889"/><path d="m156.213356 39.4537111v.9453556c-2.101823-.0662889-3.479956-.0996445-4.139889-.0996445l-4.5638.0996445v-.9453556c1.156466-.0194222 1.863266-.0722 2.121244-.1553778.255445-.0827555.429822-.1997111.526933-.3466444.116534-.1967556.194223-.6764.221667-1.4364.010978-.2052.038845-1.6052889.075156-4.1977333v-6.8484445c0-1.3392889-.014356-2.6502889-.045178-3.9313111-.029978-.9386-.102178-1.4921333-.2128-1.6656667-.113578-.1714222-.299356-.3006222-.548889-.3833777-.249111-.0848667-.9652-.1359556-2.138133-.1558v-.9466223c1.882266.0679778 3.335977.1026 4.356489.1026.986733 0 2.433688-.0346222 4.3472-.1026v.9466223c-1.1704.0198444-1.880578.0709333-2.129689.1558-.249111.0827555-.426867.1997111-.521023.3479111-.119066.1950666-.194644.6751333-.221666 1.4330222-.013511.1988667-.038845 1.5972667-.075156 4.1994222v6.8484445c0 1.3397111.013934 2.6448.044334 3.9182222.030822.9343778.1026 1.4938222.213644 1.6715778.113578.1769111.296822.3082222.548889.3909777.249533.0831778.964355.1359556 2.140667.1553778"/><path d="m164.423044 32.0973333h7.461512l-3.685156-8.9050889zm-6.895311 8.3017334v-1.0036223c.781956-.0114 1.269623-.0413777 1.458356-.0971111.193378-.0523555.370711-.1574889.534955-.3128666.1634-.1503111.396889-.5493111.704267-1.1872889.177333-.3656445.820378-1.7522222 1.9266-4.1580445l3.704578-8.3494444c.404911-.9162222 1.270044-2.9610445 2.5954-6.1264445h.944933l6.330378 14.8440667c1.025578 2.4062445 1.708311 3.9148445 2.043133 4.5274889.1862.3470667.3914.5738.6156.6818889.222511.1080889.723689.1663555 1.505645.1777555v1.0036223c-1.541534-.0941556-2.619889-.1444-3.232956-.1444l-4.769.1444v-1.0036223c1.103689-.0194222 1.775022-.0553111 2.013156-.1055555.236444-.0506667.396466-.1190667.479644-.2132222.086134-.0941556.1254-.2085778.1254-.3470667 0-.2187111-.067555-.4986444-.205622-.8452889l-1.818511-4.5279111h-8.568156l-1.608666 3.8038c-.287956.6831556-.431934 1.1788444-.431934 1.4946667 0 .1389111.038423.2524889.119067.3411555.108511.1279334.2774.2166.504556.266.363533.0781111 1.006577.1220222 1.921533.1334222v1.0036223c-1.666089-.0886667-2.916711-.133-3.748489-.133-.956756 0-2.007244.0443333-3.143867.133z"/><path d="m181.444089 40.3990667v-.9453556c1.042889-.0084444 1.7252-.0886667 2.052422-.2360222.138489-.0608.238133-.1524222.299778-.2824667.0988-.1938.165933-.7131333.210267-1.5470222.044333-1.3029778.0722-2.4239778.0722-3.3663778v-12.0346c0-.3259555-.019423-.5366444-.061223-.6350222-.077689-.1777556-.255022-.3892889-.532-.6362889-.178177-.1566444-.383377-.2562889-.6156-.3010444-.230533-.0443334-.746066-.0722-1.544066-.0819111v-.9466223c1.704511.0388445 2.7778.0586889 3.215644.0586889.746067 0 1.483689-.0198444 2.220889-.0586889.826289 1.0927111 1.435978 1.8991556 1.824844 2.4189111l3.024378 3.7653778 4.412222 5.3710889c1.413178 1.7138 2.547689 3.0606889 3.404378 4.0448889.5434.6489556 1.0032 1.1619556 1.372645 1.5364667v-10.7793334c0-.9630889-.036311-2.0929555-.1026-3.3908666-.039267-.8165778-.1026-1.3224-.194223-1.5187334-.066288-.1279333-.171422-.2208222-.310755-.2790889-.327645-.1389111-.998556-.2123777-2.026667-.2220888v-.9466223c1.164911.0388445 2.342911.0586889 3.538222.0586889 1.122267 0 2.1432-.0198444 3.061112-.0586889v.9466223c-1.029378.0097111-1.711267.0831777-2.037645.2220888-.139755.0582667-.238555.1562223-.299355.2955556-.100489.1887333-.1672.7042667-.209423 1.5508222-.046022 1.3004445-.071355 2.4210222-.071355 3.3554v7.106c0 1.4423111.025333 4.1255334.071355 8.0576889l-1.521266-.4462889-.355089-.0751555c-.061222-.0168889-.116111-.0502445-.163822-.0886667-.069245-.0502444-.257978-.2491111-.562823-.5991333-.819955-.9369111-1.419511-1.6441334-1.804577-2.1212445l-1.910978-2.4391778-10.491378-12.6700444v11.4692444c0 .9753334.032933 2.1292667.102178 3.4546223.042222.8262889.105978 1.3367555.194222 1.5246444.069667.1414445.172267.2385556.309911.2997778.324689.1384889 1.002356.2161778 2.027511.2246222v.9453556c-.866822-.0662889-1.824422-.0996445-2.869422-.0996445-1.145489 0-2.387244.0333556-3.729911.0996445"/><path d="m211.366978 32.0973333h7.458978l-3.6822-8.9050889zm-6.8932 8.3017334v-1.0036223c.782378-.0114 1.267511-.0413777 1.458778-.0971111.194222-.0523555.371977-.1574889.532422-.3128666.166355-.1503111.399-.5493111.704689-1.1872889.180289-.3656445.819955-1.7522222 1.927022-4.1580445l3.706689-8.3494444c.405333-.9162222 1.270466-2.9610445 2.589489-6.1264445h.948311l6.3308 14.8440667c1.025155 2.4062445 1.707466 3.9148445 2.043555 4.5274889.188311.3470667.393089.5738.615178.6818889.221667.1080889.723267.1663555 1.502689.1777555v1.0036223c-1.538578-.0941556-2.617778-.1444-3.2338-.1444l-4.762244.1444v-1.0036223c1.103266-.0194222 1.773755-.0553111 2.007244-.1055555.237711-.0506667.398578-.1190667.481756-.2132222.0836-.0941556.127933-.2085778.127933-.3470667 0-.2187111-.069667-.4986444-.208156-.8452889l-1.815555-4.5279111h-8.573645l-1.608244 3.8038c-.282045.6831556-.426867 1.1788444-.426867 1.4946667 0 .1389111.038845.2524889.116534.3411555.111044.1279334.2774.2166.504977.266.365645.0781111 1.006156.1220222 1.923645.1334222v1.0036223c-1.669467-.0886667-2.916289-.133-3.748489-.133-.959711 0-2.007245.0443333-3.144711.133z"/><path d="m70.5524889 4.94506667v-.30653334h3.4102889v.30653334c-1.2084 0-1.3971334.23264444-1.3971334 1.691v3.49642223c0 2.2876-1.5748888 3.4976889-3.5116222 3.4976889-1.9253333 0-3.4989555-1.2100889-3.4989555-3.4976889v-3.49642223c0-1.45835556-.1731111-1.691-1.3836223-1.691v-.30653334h3.9346889v.30653334c-1.2105111 0-1.3853111.23264444-1.3853111 1.691v3.56988893c0 1.8936666 1.0939778 2.7685111 2.5506445 2.7685111 1.5305555 0 2.6815333-.8748445 2.6815333-2.7685111v-3.56988893c0-1.45835556-.19-1.691-1.4005111-1.691"/><path d="m88.2034889 6.63606667c0-1.45835556-.1760667-1.691-1.3848889-1.691v-.30653334h3.3220444v.30653334c-1.2096666 0-1.3992444.23264444-1.3992444 1.691v6.99411113h-.3339778l-5.9309555-7.32935558v5.07131108c0 1.4566667.1883111 1.7049334 1.3988222 1.7049334v.3052666h-3.3216222v-.3052666c1.2084 0 1.3836222-.2482667 1.3836222-1.7049334v-4.73606663c0-1.45835556-.1752222-1.691-1.3836222-1.691v-.30653334h2.0528444l5.5969778 6.93711107z"/><path d="m97.0887333 13.3823333v-.3052666c1.2088223 0 1.3832-.2482667 1.3832-1.7049334v-4.73606663c0-1.45835556-.1743777-1.691-1.3832-1.691v-.30653334h3.9342667v.30653334c-1.2105111 0-1.3853111.23264444-1.3853111 1.691v4.73606663c0 1.4566667.1748 1.7049334 1.3853111 1.7049334v.3052666z"/><path d="m115.344356 6.213-3.205512 7.4171778h-.188311l-3.2224-7.4171778c-.451355-1.03528889-.523977-1.26793333-1.736177-1.26793333v-.30653334h4.037711v.30653334c-1.208823 0-1.486223.30611111-1.137045 1.10748889l2.479289 5.66875554 2.448045-5.66875554c.3496-.78744445.071777-1.10748889-1.137045-1.10748889v-.30653334h3.394245v.30653334c-1.209245 0-1.281023.23264444-1.7328 1.26793333"/><path d="m123.063422 13.0770667c1.2084 0 1.386156-.2482667 1.386156-1.7049334v-4.73606663c0-1.45835556-.177756-1.691-1.386156-1.691v-.30653334h6.642822l.133423 1.92448889h-.305267l-.074733-.29175555c-.202667-.75831111-.346223-1.09355556-1.688467-1.09355556h-2.157556v3.30937778h.727067c1.458356 0 1.691-.17648889 1.691-1.40051111h.3078v3.33724442h-.3078c0-1.2240222-.232644-1.3988222-1.691-1.3988222h-.727067v2.128c0 1.4570889.1748 1.6901556 1.386578 1.6901556h1.2502c1.339711 0 1.500156-.3360889 1.691-1.1066445l.073045-.2926h.3078l-.116956 1.9384222h-7.141889z"/><path d="m143.214822 7.10051111c0-1.04795555-.582666-1.9228-1.852289-1.9228h-1.281444v3.84728889h1.281444c1.269623 0 1.852289-.85964444 1.852289-1.92448889zm.133 4.12468889c.856689 1.0205111 1.832867 1.7492667 2.706445 1.8518667v.3052666h-2.403711l-2.883778-3.83208886h-.685689v1.82188886c0 1.4566667.175644 1.7049334 1.384889 1.7049334v.3052666h-3.935534v-.3052666c1.208823 0 1.386578-.2482667 1.386578-1.7049334v-4.73606663c0-1.45835556-.177755-1.691-1.386578-1.691v-.30653334h3.848978c2.024134 0 3.132889 1.10917778 3.132889 2.46197778 0 1.26877778-.947889 2.27535556-2.5954 2.44973333z"/><path d="m153.118467 13.6301778h-.287956v-3.2063556h.287956s.030822 2.6241111 2.698422 2.6241111c1.034022 0 1.821467-.6709111 1.821467-1.6040222 0-.6709111-.670489-1.2379555-1.674534-1.76319999l-1.403889-.71397778c-.841911-.437-1.612889-1.29622222-1.612889-2.40371111 0-1.20924444 1.003623-2.17106666 2.418067-2.17106666.859645 0 1.340978.27697777 1.776711.59744444.175222-.14566667.352556-.3648.425178-.67133333h.287533v3.20677777h-.305266c-.099645-1.16575555-.537911-2.55064444-2.228911-2.55064444-.814467 0-1.414445.56831111-1.414445 1.29706667 0 .75704444.510889 1.15097777 1.763622 1.80668889l1.397556.71397777c1.123111.56873334 1.52 1.41402227 1.52 2.21539997 0 1.5888223-1.270045 2.6228445-2.7702 2.6228445-1.1096 0-1.807533-.5822445-2.274089-.6844222-.1748.1452444-.349178.3631111-.424333.6844222"/><path d="m165.767822 13.3823333v-.3052666c1.2084 0 1.380667-.2482667 1.380667-1.7049334v-4.73606663c0-1.45835556-.172267-1.691-1.380667-1.691v-.30653334h3.931734v.30653334c-1.209245 0-1.383623.23264444-1.383623 1.691v4.73606663c0 1.4566667.174378 1.7049334 1.383623 1.7049334v.3052666z"/><path d="m185.448867 6.60693333h-.305689l-.071778-.2926c-.2052-.77182222-.350022-1.1058-1.691844-1.1058h-1.907178v6.16359997c0 1.4566667.188311 1.7049334 1.397555 1.7049334v.3052666h-3.948622v-.3052666c1.208822 0 1.397556-.2482667 1.397556-1.7049334v-6.16359997h-1.907178c-1.339711 0-1.487067.33397778-1.691422 1.1058l-.072623.2926h-.304844l.130467-1.9684h8.847244z"/><path d="m196.802 11.3721333c0 1.4566667.174378 1.7049334 1.384044 1.7049334v.3052666h-3.932155v-.3052666c1.209244 0 1.380667-.2482667 1.380667-1.7049334v-1.41444441l-2.417223-3.74468889c-.626155-.96182222-1.076244-1.26793333-2.113222-1.26793333v-.30653334h4.153822v.30653334c-1.225289 0-1.225289.43657777-.787444 1.10748889l2.098867 3.20508888 2.127155-3.20508888c.510045-.78744445.437845-1.10748889-.788289-1.10748889v-.30653334h3.411134v.30653334c-1.226134 0-1.530556.40871111-2.1128 1.26793333l-2.404556 3.64377778z"/><path d="m212.276867 7.21577778c-.598711-.08191111-1.092289.55311111-1.358711 1.38615555-.266.83177778-.211112 1.55293337.385066 1.63568887.596178.0823334 1.084267-.56535553 1.347734-1.39671109.268955-.83346667.210688-1.54448889-.374089-1.62513333zm-1.067378 3.32964442c-.834733-.1148444-1.250622-1.02979998-.940289-2.03215553.329333-1.00108889 1.264556-1.72055556 2.098867-1.60402223.826711.11357778 1.239222 1.01628889.917911 2.01864445-.316245 1.00066667-1.250622 1.73153331-2.076489 1.61753331z"/><path d="m215.337978 7.83686667.371555-.97068889c.448823-1.15646667 1.333378-1.84215556 1.929556-1.87171111.593222-.02744445.770978.38548889.659511.68104444-.060378.1482-.187889.24911111-.352556.25628889-.412933.02111111.081067-.6764-.456844-.65106667-.304844.01351111-.812356.46275556-1.241756 1.55926667l-.374933.97195556-.141444.34242222-1.541111 3.97184442c-.449667 1.1560445-1.031067 1.5858667-1.597267 1.6133111-.565356.0282889-.717356-.3698666-.598711-.6557111.063755-.1549555.182822-.2769778.377044-.2854222.412934-.0194222-.138911.6793556.382956.6557111.285-.0135111.532-.3618444.898489-1.3029778l1.541111-3.97057774z"/><path d="m216.180733 8.72564444h-1.946444l.166355-.34242222h1.918578z"/><path d="m70.8100444 53.3254c.7211556 0 .8592223-.1967556.9242445-1.3587111l.1997111-3.7738222c.0667111-1.1615334-.0498222-1.3473111-.7722444-1.3473111l.0071777-.2432h2.4400223l-.0071778.2432c-.7308667 0-.8596445.1857777-.9132667 1.3473111l-.1971778 3.5990222c-.0667111 1.1619555.0375778 1.3477333.7583111 1.3477333h1.0327556c.8026444 0 .9082-.2664222 1.0538667-.8811778l.0523555-.2334888h.1849334l-.1570667 1.5474444h-4.6220667z"/><path d="m89.0728444 47.9821778-1.0323333 2.7423333h1.7775556zm-1.6905777 4.4612c-.2372889.6409333-.0916223.8820222.6417777.8820222l-.0059111.247h-2.1486889l.0164667-.247c.627 0 .7709778-.1629778 1.0952445-1.0095333l2.2238444-5.9106889h.2204l1.6095111 5.9106889c.2292667.8237555.3217333 1.0095333.9706889 1.0095333l-.0046444.247h-2.4742223l.0177334-.247c.7211555 0 .9082-.2550222.7266444-.8820222l-.3436889-1.2890445h-2.0545333z"/><path d="m105.687289 49.6681111h.432355c.868089 0 1.026-.1410222 1.069912-1.1146667h.183666l-.133422 2.6595778h-.187889c.055311-.9766-.092467-1.1125555-.962244-1.1125555h-.430667l-.095844 1.8662222c-.0532 1.1619555.040533 1.3587111.773088 1.3587111l-.016466.247h-2.440445l.016467-.247c.721156 0 .859222-.1967556.926356-1.3587111l.196755-3.7738222c.069667-1.1615334-.046867-1.3473111-.768022-1.3473111l.005489-.2432h4.181266v1.5330888h-.182822l-.027866-.2309555c-.088667-.6042-.166356-.8731556-.967734-.8731556h-1.427533z"/><path d="m121.940733 47.9821778-1.036977 2.7423333h1.780511zm-1.696911 4.4612c-.232644.6409333-.089089.8820222.643467.8820222l-.005489.247h-2.146578l.017311-.247c.626156 0 .767178-.1629778 1.094823-1.0095333l2.220888-5.9106889h.222089l1.610778 5.9106889c.2242.8237555.318356 1.0095333.970267 1.0095333l-.008445.247h-2.470422l.016889-.247c.717778 0 .906511-.2550222.729178-.8820222l-.346645-1.2890445h-2.054533z"/><path d="m138.626956 51.9666889c-.067134 1.1619555.038844 1.3587111.759577 1.3587111l-.005489.247h-2.462822l.014356-.247c.723689 0 .857111-.1967556.928889-1.3587111l.033355-.5792889c.171845-3.3110667-.635022-4.4945556-1.286511-4.4945556-.183244 0-.432778.1638223-.537911.2685334l-.027867-.2685334c.241089-.2904888.587734-.4053333.842756-.4053333.8816 0 1.419933.8600667 1.649622 3.4246445.474578-1.9962667 1.055978-3.4128223 2.021178-3.4128223.499489 0 .768444.3935111.746067.6954-.013512.1748-.107667.3276445-.3078.3276445-.429823 0-.219134-.5577556-.648956-.5577556-.7068 0-1.596844 2.7870889-1.6796 4.3776z"/><path d="m153.263711 53.3254c.717778 0 .856267-.1967556.9234-1.3587111l.199289-3.7738222c.067556-1.1615334-.049822-1.3473111-.770556-1.3473111l.005489-.2432h4.042778l-.0114 1.5330888h-.182822l-.030822-.2309555c-.082756-.6042-.1634-.8731556-.964778-.8731556h-1.277645l-.139755 2.6367778h.428133c.869356 0 1.028111-.1410222 1.072867-1.1146667h.185355l-.138911 2.6595778h-.188311c.055311-.9766-.088666-1.1125555-.959289-1.1125555h-.429822l-.080222 1.6914222c-.066711 1.1619555.033355 1.3477333.757044 1.3477333h.742689c.8018 0 .907356-.2664222 1.050911-.8811778l.055311-.2334888h.183245l-.158333 1.5474444h-4.327356z"/><path d="m201.785067 53.3254c.720733 0 .860066-.1967556.925933-1.3587111l.199711-3.7738222c.066711-1.1615334-.049822-1.3473111-.770133-1.3473111l.005489-.2432h4.042355l-.010978 1.5330888h-.1862l-.027866-.2309555c-.085711-.6042-.162978-.8731556-.964356-.8731556h-1.278066l-.138912 2.6367778h.429823c.867666 0 1.022622-.1410222 1.0678-1.1146667h.188311l-.138911 2.6595778h-.188734c.055734-.9766-.088244-1.1125555-.958866-1.1125555h-.429823l-.080222 1.6914222c-.066711 1.1619555.035467 1.3477333.753667 1.3477333h.746067c.798422 0 .906511-.2664222 1.051333-.8811778l.051933-.2334888h.185778l-.160444 1.5474444h-4.328623z"/><path d="m171.890467 46.987-.268956 4.9239556c-.067133 1.1594222.0418 1.3561777.759578 1.3561777l-.002533.2440445h-2.437912l.003378-.2440445c.731711 0 .870622-.1967555.934378-1.3561777l.266-4.9239556h-.681467c-1.059777 0-1.2008.2524889-1.389111.8816h-.2584l.301889-1.3253556h3.5188"/><path d="m170.352311 46.5432444h3.515l.304845 1.3253556h-.260512c-.188733-.6291111-.332711-.8816-1.386155-.8816h-.684845"/><path d="m188.323778 47.0456889-.266 4.921c-.066711 1.1619555.039266 1.3587111.76 1.3587111l-.005067.247h-2.440444l.005911-.247c.731289 0 .869778-.1967556.936911-1.3587111l.266-4.921h-.6878c-1.053867 0-1.197422.2516444-1.386578.8786444h-.255022l.297244-1.3219777h3.523867"/><path d="m186.782667 46.6023556h3.5188l.301889 1.3219777h-.255445c-.190844-.627-.332289-.8786444-1.388689-.8786444h-.684844" mask="url(#a)"/><path d="m43.5961333 36.1092889-.0945777.3808444c-.9842-1.9443333-2.6882889-3.0345111-3.7417334-3.4073333-1.0521778-.3762-1.6568-.4108222-1.6568-.4108222s.5763334 1.2810222.6185556 1.8721333c.0304.3909778.076.7334-.2372889 1.2675111-.2596667.4488222-.6569778.6785111-1.1843333.6785111-.8689334 0-1.4444223-.3512889-1.7919112-.6785111.532-.6084222.6291112-1.1906666.5995556-1.6154222-.0553111-.7701333-.5518444-1.3460444-.9842-1.7070444.3462222-.9250889 1.4473778-2.6806889 4.8175556-2.6806889 3.4347777 0 3.9418666 2.5704889 3.9418666 4.1023111 0 1.0285333-.2795111 2.1854222-.2866889 2.1985111zm-27.8079777-1.9130889c-.0282889.4247556.0709333 1.0082667.5987111 1.6175333-.3403111.3217334-.9170667.6764-1.7872667.6764-.5248222 0-.9263556-.2296889-1.1910889-.6810444-.3213111-.5602889-.2862667-1.0521778-.2389778-1.2958.1460889-.7515556.6341778-1.8413111.6341778-1.8413111s-.6058889.0422222-1.6639778.4108222c-1.0602.3690222-2.76091108 1.463-3.74722219 3.4073333l-.09626667-.3808444c0-.0105556-.28626666-1.1767333-.28626666-2.1985111 0-1.5318222.5168-4.1023111 3.95031112-4.1023111 3.3659555 0 4.4662667 1.748 4.8141778 2.6832222-.4361556.3584667-.9288889.9343778-.9863111 1.7045111zm26.1858-16.9442c-3.1590667 0-5.6138667 1.2307778-7.0283112 2.1698-2.2555111-13.2468-8.1138444-18.57313333-8.3705555-18.80197778l-.6236222-.55437778-.6286889.55437778c-.2571334.22884445-6.1150445 5.55602222-8.3654889 18.80197778-1.4148667-.9390222-3.8700889-2.1698-7.03337779-2.1698-6.13151111 0-9.92391111 5.4099333-9.92391111 10.4212889 0 2.6182 1.22106667 5.1012889 3.53188889 7.1841111 1.6986 1.5288667 3.38706667 2.3061778 3.46053333 2.3374222l.94662222.4306667c-.20308888.6641555-.32004444 1.4038889-.32004444 2.2221555 0 5.3791112 3.8637556 7.2888223 7.1752444 7.2888223 1.5229556 0 2.7778-.4133556 3.6112667-.7916667 2.3766889 7.0912222 6.8176222 10.1607778 7.0160667 10.2975778l.5298889.3576222.5286222-.3576222c.1950667-.1368 4.6364222-3.2063556 7.0160667-10.2975778.8334666.3783111 2.0870444.7916667 3.6129555.7916667 3.306 0 7.1693333-1.9097111 7.1693333-7.2888223 0-.8182666-.1182222-1.558-.3183555-2.2221555l.9453555-.4306667c.0684-.0312444 1.7602445-.8085555 3.4609556-2.3374222 2.3116667-2.0828222 3.5327333-4.5659111 3.5327333-7.1841111 0-5.0113556-3.7953555-10.4212889-9.9251777-10.4212889z" mask="url(#a)"/><path d="m31.6582222 54.4079778h-.3622666v-.3365111h.3622666c.0912 0 .1655111.0755777.1655111.1705777 0 .0912-.0743111.1659334-.1655111.1659334zm.4572667-.1659334c0-.2537555-.2047778-.4576888-.4572667-.4576888h-.6527555v1.5406888h.2904889v-.6278444h.2081555l.2930222.6278444h.3183556l-.3069556-.6536c.1777556-.0624888.3069556-.2330666.3069556-.4294z"/><path d="m31.5598444 55.6142667c-.5860444 0-1.0606222-.4754223-1.0606222-1.0602 0-.5868889.4745778-1.0606223 1.0606222-1.0606223.5881556 0 1.0623112.4737334 1.0623112 1.0606223 0 .5847777-.4741556 1.0602-1.0623112 1.0602zm0-2.4104667c-.7439555 0-1.3485777.6050444-1.3485777 1.3502667 0 .7477555.6046222 1.3523777 1.3485777 1.3523777.7448 0 1.3519556-.6046222 1.3519556-1.3523777 0-.7452223-.6071556-1.3502667-1.3519556-1.3502667z"/></g><path d="m41.9933778 18.1783556c-4.6845556 0-7.7317334 2.9538666-7.7317334 2.9538666-2.014-14.25717776-8.3203111-19.85246664-8.3203111-19.85246664s-6.3130666 5.59528888-8.3232666 19.85246664c0 0-3.0454889-2.9538666-7.73680003-2.9538666-5.95164445 0-8.99502223 5.3765777-8.99502223 9.4974666 0 5.7418 6.44986667 8.6775111 6.44986667 8.6775111s-.31497778-1.2687777-.31497778-2.4269333c0-1.4773556.52482223-5.0590667 4.89693337-5.0590667 5.3457555 0 5.9111111 4.0360223 5.9111111 4.0360223s-2.4049778 1.2328888-.1946445 2.8044c0 0-.8246 1.7412444-3.0670222 1.7412444-2.2428444 0-2.7685111-2.6540889-2.1529111-3.4630667 0 0-3.89288889 1.3692667-3.89288889 5.8862 0 4.5173556 3.09826669 6.3548667 6.23664449 6.3548667 2.4991333 0 4.1787333-1.2371111 4.1787333-1.2371111 2.1934444 7.6713555 7.0042444 10.9262667 7.0042444 10.9262667s4.8036223-3.2549112 7.0008667-10.9262667c0 0 1.6787556 1.2371111 4.1753556 1.2371111 3.1366888 0 6.2383333-1.8375111 6.2383333-6.3548667 0-4.5169333-3.8924667-5.8862-3.8924667-5.8862.6160222.8089778.0916222 3.4630667-2.1508 3.4630667-2.2445333 0-3.0729333-1.7412444-3.0729333-1.7412444 2.2141333-1.5715112-.1916889-2.8044-.1916889-2.8044s.5619778-4.0360223 5.9068889-4.0360223c4.3784444 0 4.8982 3.5817111 4.8982 5.0590667 0 1.1581556-.3120222 2.4269333-.3120222 2.4269333s6.4477555-2.9357111 6.4477555-8.6775111c0-4.1208889-3.0408444-9.4974666-8.9954444-9.4974666" fill="#0c0a09"/><path d="m45.9825333 34.5458c3.3254223-4.0592444 1.1066445-10.9570889-4.5388889-10.9570889-6.2434 0-9.3539111 8.4989111-9.3539111 8.4989111s-.3947777-.1072444-.9538-.2301111c-.1908444-.0312444-.3436889-.0688222-.5450889-.1114667-.3335555-.0646-.6852666-.1300444-1.0395111-.1760666.7971556-3.2333778 5.396-12.0101111 12.1439556-12.0101111 5.1122667 0 7.9631111 3.5171111 7.9631111 8.4672444 0 4.2792222-3.6758667 6.5186889-3.6758667 6.5186889zm-8.8873555 7.9289111c2.3323555 0 4.0398222-2.6025778 4.0398222-4.2319333 0-1.1298667-.6400889-2.2107556-.6400889-2.2107556.2284222 1.2607556-1.3072 2.8288889-2.7254444 2.8288889-1.2366889 0-1.8869111-.8208-1.8869111-.8208l.1401777-.1549555s.6422.5843555 1.6031778.5843555c2.1322222 0 2.9298-2.2622667 2.7482445-2.8563333.6612.5628222 1.9464444 1.6432889 1.9464444 4.5262222 0 2.2394667-1.5858667 5.0426-5.1561778 5.0426-6.3008222 0-8.0522-7.9740889-8.0522-7.9740889 1.1049556-.1042889 2.8453556-.5125778 2.8453556-.5125778s.1186444 5.7793778 5.1376 5.7793778zm-11.1538445 10.9199333s-3.6176-2.0891555-5.7135111-9.5274444c0 0 2.3310889-2.8770222 3.5217556-6.5634444h1.5934666l-3.5293555 7.5607333c1.3325333 4.7597111 4.1276444 6.9138889 4.1276444 6.9138889v-14.4746222h.6823111c.3166667-.0025334.4627556-.0025334.7984223 0h.7059555c1.1902445 3.6864222 3.5179556 6.5634444 3.5179556 6.5634444-2.09 7.4382889-5.7046445 9.5274444-5.7046445 9.5274444zm-11.2285777-8.2126444c-3.5703112 0-5.15448893-2.8031333-5.15448893-5.0426 0-2.8829333 1.28060003-3.9634 1.94137773-4.5262222-.1794444.5940666.6194 2.8563333 2.7486667 2.8563333.9605556 0 1.6061333-.5843555 1.6061333-.5843555l.1418667.1549555s-.6548667.8208-1.8932444.8208c-1.4161334 0-2.9496445-1.5681333-2.7233334-2.8288889 0 0-.6375555 1.0808889-.6375555 2.2107556 0 1.6293555 1.7091555 4.2319333 4.0415111 4.2319333 4.6393778 0 5.7320889-5.6484889 5.7320889-5.6484889s1.1416889.2774 2.2508666.3816889c0 0-1.7513777 7.9740889-8.0538888 7.9740889zm-4.2821778-21.5932889c-5.64342224 0-7.86473336 6.8978445-4.53593336 10.9570889 0 0-3.67755555-2.2394667-3.67755555-6.5186889 0-4.9501333 2.85591111-8.4672444 7.96100001-8.4672444 6.7538667 0 11.3539778 8.7767333 12.1456444 12.0101111-1.2189555.1642444-2.5396666.5176444-2.5396666.5176444s-3.1075556-8.4989111-9.3534889-8.4989111zm11.5625555 12.5839111s-3.8548889-.3322889-3.8548889-1.8442666c0-1.1644889 2.9665334-2.1672667 7.8030889-2.1672667 2.451 0 6.2590223.2254667 6.2590223 1.7011333 0 1.4744-6.2590223 1.3118445-6.2590223 1.3118445-7.8681111 0-5.5830444-.8216445-7.2993777-.8216445.9234 1.4760889 3.3511777 1.8202 3.3511777 1.8202zm3.9482-32.78597776s5.5471556 6.41862223 6.8277556 19.49991116c0 0-3.3199333 4.3573333-3.9532667 8.5782888 0 0-.3998444-.0367333-.9145333-.0717777.8638667-4.9657556 3.6501111-8.8852445 3.6501111-8.8852445-1.6690444-10.9870666-5.6100667-17.60244442-5.6100667-17.60244442v26.38551112c-.3335555 0-.8558444.0266-1.3667333.0595333-.1697333.0054889-.4032222.0299778-.6016667.0426445-.5146889.0350444-.9115777.0717777-.9115777.0717777-.6346-4.2209555-3.9545334-8.5782888-3.9545334-8.5782888 1.2852445-13.08128893 6.8345111-19.49991116 6.8345111-19.49991116z" fill="#ba2229"/><path d="m20.3228222 22.5078222s2.7858222 3.9194889 3.6501111 8.8852445c.1921111-.0139334.3985778-.0299778.6016667-.0426445-.6122222-5.5796666-2.9513333-8.8109333-2.9513333-8.8109333.5729555-8.0547333 4.3180666-17.63411112 4.3180666-17.63411112s-3.9482 6.61537782-5.6185111 17.60244442" fill="#fffffe"/><path d="m30.096 45.6515111s-1.4389333-3.9693111-2.6739333-8.3477555h-.7984223c.3512889 2.1271555 2.0959112 8.7277555 2.0959112 8.7277555-.5915334 3.116-2.0672 5.3520889-2.0672 5.3520889s1.9717777-1.4038889 3.4436444-5.7320889" fill="#fffffe"/><path d="m19.6109556 33.9432889s4.6486666-.8098222 11.5764888-.6050445c-5.0772222-1.1252222-10.5154444-.0481333-10.5154444-.0481333z" fill="#fffffe"/><path d="m10.4542222 20.9620667c4.2348889 0 6.3751334 3.3520222 6.3751334 3.3520222s-2.1166-4.2319333-7.08826671-4.2319333c-3.63828889 0-6.82775556 3.4250666-6.82775556 7.2786888 0 3.8515112 1.52633334 5.4010667 1.52633334 5.4010667s-.97786667-1.6183778-.97786667-4.4970889c0-2.8770222 2.26184444-7.3027555 6.9924222-7.3027555" fill="#fffffe"/><path d="m41.7552444 20.4621556c-6.3620444 0-10.1438888 7.9170888-11.1644 11.2838888.1916889.0363112.3778889.0743112.5450889.1114667 1.0880667-2.6574667 5.0126223-10.8460444 11.0715111-10.8460444 2.9475334 0 4.8293778 1.8544 4.8293778 1.8544s-1.8818444-2.4037111-5.2815778-2.4037111" fill="#fffffe"/></g></svg>